<svg width="1921" height="178" viewBox="0 0 1921 178" fill="none" xmlns="http://www.w3.org/2000/svg">
<path d="M82.6282 46.8183C60.9542 69.3499 31.8114 81.759 0.566406 81.759V178H1920.57V81.7628C1889.32 81.764 1860.18 69.3561 1838.51 46.8246C1838.48 46.7946 1838.45 46.7634 1838.42 46.731C1809.39 16.5946 1770.38 0 1728.56 0C1686.74 0.00124752 1647.74 16.5921 1618.71 46.7186L1618.62 46.8196C1596.94 69.3512 1567.8 81.7603 1536.56 81.7603C1505.31 81.7603 1476.18 69.3561 1454.5 46.8296L1454.5 46.8222C1454.49 46.8177 1454.49 46.8133 1454.48 46.8084C1425.45 16.6258 1386.41 0.00247464 1344.55 0.00247464C1302.7 0.00247464 1263.66 16.6258 1234.62 46.8084C1234.59 46.8483 1234.55 46.8882 1234.51 46.9281C1212.85 69.3898 1183.75 81.7578 1152.55 81.7578C1121.31 81.7578 1092.17 69.3499 1070.49 46.8171C1070.46 46.7859 1070.43 46.756 1070.4 46.7248C1041.38 16.5958 1002.37 0.00247464 960.555 0.00247464C918.702 0.00247464 879.657 16.6283 850.624 46.8096C850.59 46.8458 850.555 46.882 850.522 46.9182C828.858 69.3848 799.753 81.7565 768.556 81.7565C737.311 81.7553 708.168 69.3462 686.494 46.8134C657.46 16.6295 618.418 0.00498736 576.562 0.00498736C534.708 0.00498736 495.664 16.6307 466.63 46.8121C466.597 46.8483 466.561 46.8845 466.527 46.9206C444.864 69.3873 415.76 81.759 384.562 81.759C353.344 81.759 324.222 69.3699 302.554 46.872C302.534 46.852 302.515 46.8321 302.496 46.8121C273.461 16.6282 234.421 0.00498736 192.564 0.00498736C150.739 0.00498736 111.722 16.6058 82.6955 46.7485C82.6731 46.7709 82.6506 46.7946 82.6282 46.8183Z" fill="white"/>
</svg>
