<svg width="2400" height="1400" viewBox="0 0 2400 1400" fill="none" xmlns="http://www.w3.org/2000/svg">
<g clip-path="url(#clip0_4_1633)">
<mask id="mask0_4_1633" style="mask-type:luminance" maskUnits="userSpaceOnUse" x="0" y="0" width="2400" height="1400">
<path d="M2400 0H0V1400H2400V0Z" fill="white"/>
</mask>
<g mask="url(#mask0_4_1633)">
<path d="M1598.23 13.127C1600.63 14.704 1603.33 15.873 1606.3 16.16C1609.75 16.494 1613.17 16.956 1616.6 17.51C1624.35 18.762 1630.01 14.499 1631.85 6.79402C1632.38 4.55002 1632.75 2.26502 1633.19 -0.000976562C1619.69 -0.000976562 1606.2 -0.000976562 1592.71 -0.000976562C1590.61 6.02902 1593.55 10.048 1598.23 13.127Z" fill="#D22F2F" fill-opacity="0.15"/>
<path d="M1362.16 0C1348.67 0 1335.18 0 1321.68 0C1323.12 3.323 1326.39 3.995 1329.28 5.065C1334.8 7.114 1339.44 10.155 1343.58 14.507C1350.44 21.733 1353.75 21.244 1360.63 13.705C1363.24 10.85 1364.13 7.84 1363.15 4.175C1362.78 2.793 1362.49 1.392 1362.16 0Z" fill="#D22F2F" fill-opacity="0.15"/>
<path d="M1123.12 5.17398C1127.56 7.16798 1132.07 9.02998 1137.05 9.06098C1138.14 9.06798 1139.74 8.95698 1140.23 8.27198C1142.39 5.28098 1146.67 4.13998 1147.45 0.000976562C1145.11 0.000976562 1142.76 0.000976562 1140.41 0.000976562C1138.07 0.000976562 1135.72 0.000976562 1133.37 0.000976562C1129.27 0.000976562 1125.16 0.000976562 1121.06 0.000976562C1120.89 2.06698 1120.86 4.15798 1123.12 5.17398Z" fill="#D22F2F" fill-opacity="0.15"/>
<path d="M1709.53 1389.64C1704.93 1388.98 1700.34 1389.14 1695.82 1390.3C1695.27 1390.44 1694.78 1390.81 1694.29 1391.12C1693.38 1391.68 1693.24 1392.8 1693.97 1393.17C1697.73 1395.12 1693.97 1397.81 1694.78 1400C1698.89 1400 1703 1400 1707.1 1400C1708.2 1397.65 1706.63 1394.01 1710.58 1393.03C1711.45 1392.81 1712.01 1391.9 1711.48 1391.06C1711.07 1390.41 1710.24 1389.74 1709.53 1389.64Z" fill="#D22F2F" fill-opacity="0.15"/>
<path d="M963.858 1392.86C959.158 1393.35 955.408 1395.12 953.866 1400C958.559 1400 963.252 1400 967.945 1400C967.719 1396.87 971.796 1396.83 972.433 1393.99C969.548 1392.73 966.748 1392.56 963.858 1392.86Z" fill="#D22F2F" fill-opacity="0.15"/>
<path d="M994.183 6.434C996.843 7.098 999.096 5.582 1000.47 3.217C1001.01 2.282 1001.09 1.08 1001.38 0C997.277 0 993.17 0 989.064 0C988.307 4.09 991.118 5.67 994.183 6.434Z" fill="#D22F2F" fill-opacity="0.15"/>
<path d="M1203.22 923.596C1203.28 922.777 1202.9 921.797 1201.81 921.746C1201.32 921.722 1200.54 921.966 1200.34 922.332C1198.88 925.013 1197.31 925.509 1194.97 923.177C1190.58 918.807 1184.75 917.813 1178.99 916.843C1175 916.173 1171.46 917.246 1168.59 920.219C1167.17 921.689 1165.64 923.056 1164.29 924.588C1160.21 929.238 1155.29 929.547 1149.96 927.327C1147.81 926.433 1145.84 925.128 1143.75 924.1C1140.48 922.495 1137.82 924.058 1137.72 927.649C1137.69 928.807 1137.88 929.973 1138 931.132C1138.69 937.827 1139.05 944.52 1138.32 951.244C1138.14 952.969 1138.17 954.746 1138.33 956.476C1138.91 962.47 1142.55 966.611 1148.32 968.264C1153.12 969.642 1157.56 968.452 1161.91 966.601C1164.59 965.464 1167.21 964.191 1169.83 962.925C1173.22 961.288 1176.82 961.354 1180.05 962.719C1186.22 965.331 1192 968.717 1196.04 974.36C1196.69 975.27 1197.16 976.394 1198.68 976.033C1199.81 975.763 1199.67 974.752 1200.06 974.031C1201.34 971.647 1201.63 969.062 1201.75 966.415C1201.98 961.453 1202.29 956.495 1202.64 950.196C1204.45 942.264 1202.58 932.901 1203.22 923.596Z" fill="#D22F2F" fill-opacity="0.15"/>
<path d="M1591.09 92.0642C1591.96 89.1102 1593.83 86.5832 1596.45 85.3752C1603.02 82.3462 1609.68 79.2312 1617.32 80.5942C1618.32 80.7712 1619.66 81.0302 1620.07 79.4752C1618.74 75.7732 1616.23 73.0032 1613.46 70.3602C1603.3 60.6932 1593.66 50.4672 1582.35 42.0702C1581.89 40.8092 1580.9 40.2552 1579.76 40.8092C1578.67 41.3412 1578.37 42.5452 1578.86 43.6832C1579.19 44.4272 1579.81 45.0442 1580.29 45.7192C1579.97 47.6002 1578.44 47.7052 1577.02 47.9202C1570.66 48.8822 1565.62 52.2082 1561.15 56.6242C1558.5 59.2382 1557.08 62.2702 1557.46 66.0562C1557.68 68.3792 1557.77 70.7172 1558 73.0402C1558.57 78.7692 1555.78 82.5162 1550.9 84.9422C1548.82 85.9812 1546.55 86.6652 1544.42 87.6282C1540.66 89.3292 1540.37 92.3602 1543.72 95.0512C1545.08 96.1482 1546.61 97.0462 1548.03 98.0752C1552.78 101.505 1557.58 104.87 1561.36 109.441C1561.91 110.116 1562.53 110.759 1563.2 111.324C1571.1 118.011 1579.97 115.805 1585.21 108.445C1587.09 105.797 1588.33 102.855 1589.03 99.6582C1589.6 97.0982 1590.36 94.5802 1591.09 92.0642Z" fill="#D22F2F" fill-opacity="0.15"/>
<path d="M338.765 1118.83C337.934 1119 337.544 1118.95 337.395 1119.12C334.37 1122.56 334.259 1122.76 331.482 1121.13C326.984 1118.5 322.129 1117.99 317.093 1117.95C311.451 1117.89 306.64 1119.18 304.091 1124.91C303.628 1125.95 302.637 1126.74 302.013 1127.72C298.143 1133.82 292.732 1135 285.922 1132.79C284.253 1132.25 282.647 1131.49 280.957 1131.04C278.04 1130.27 275.7 1132.33 276 1135.36C276.115 1136.52 276.326 1137.7 276.705 1138.79C279.017 1145.48 280.288 1152.36 280.719 1159.41C280.824 1161.14 281.305 1162.88 281.842 1164.54C283.733 1170.38 288.08 1173.59 294.214 1173.74C299.059 1173.87 303.434 1172.55 307.295 1169.53C309.366 1167.91 311.567 1166.45 313.726 1164.95C317.327 1162.43 321.136 1161.88 325.382 1163.28C329.27 1164.56 333.008 1166.01 336.691 1167.87C339.576 1169.34 341.194 1172.4 344.467 1173.36C345.645 1170.82 346.568 1168.37 346.219 1165.73C344.148 1150.03 343.62 1134.07 338.765 1118.83Z" fill="#D22F2F" fill-opacity="0.15"/>
<path d="M1633.03 474.431C1632.07 470.73 1629.71 468.364 1625.85 467.588C1624.14 467.245 1622.47 466.751 1620.79 466.281C1618.95 465.766 1617.27 466.038 1615.94 467.406C1612.53 470.912 1608.24 472.397 1603.57 473.415C1593.85 475.53 1593.44 476.386 1593.76 486.212C1593.82 488.15 1594.39 489.553 1595.42 490.976C1596.96 493.107 1598.48 495.251 1600.04 497.369C1603.23 501.691 1605.31 506.408 1605.59 511.857C1605.72 514.481 1606.03 517.102 1606.37 519.709C1607.12 525.362 1613.35 530.733 1619.05 530.982C1626.58 531.311 1631.48 526.608 1636.55 522.181C1641.05 518.241 1639.63 512.396 1641.2 507.795C1640.93 506.334 1640.79 505.167 1640.5 504.036C1638.03 494.16 1635.57 484.284 1633.03 474.431Z" fill="#D22F2F" fill-opacity="0.15"/>
<path d="M135.249 969.203C131.419 967.445 127.311 967.459 121.81 966.869C116.228 967.128 111.002 971.054 107.346 976.294C101.389 984.833 96.2121 993.928 90.9181 1002.91C88.1621 1007.59 89.1351 1011.84 93.2851 1015.33C94.3921 1016.25 95.5741 1017.25 96.8981 1017.74C103.239 1020.05 108.921 1023.55 114.63 1027.06C117.957 1029.1 120.465 1028.74 123.317 1026.35C127.563 1022.79 129.578 1018.18 129.978 1012.72C130.511 1005.43 133.558 999.29 138.707 994.141C139.943 992.905 141.142 991.614 142.212 990.235C142.911 989.335 143.565 988.293 143.866 987.211C145.964 979.652 142.46 972.513 135.249 969.203Z" fill="#D22F2F" fill-opacity="0.15"/>
<path d="M2299.81 502.663C2298.42 500.79 2296.44 499.224 2296.4 496.692C2296.32 490.425 2291.89 486.82 2288.11 482.814C2285.74 480.309 2282.88 480.386 2280.03 481.705C2278.51 482.409 2277.27 484.274 2275.81 484.397C2273.4 484.598 2273.21 481.595 2271.71 480.296C2270.4 479.158 2269.22 477.834 2267.79 476.877C2265.92 475.623 2263.82 476.61 2262.8 478.703C2261.39 481.628 2262.11 484.439 2262.99 487.24C2264.35 491.591 2264.1 495.296 2259.48 497.628C2258.72 498.01 2258.11 498.733 2257.51 499.373C2254.91 502.16 2254.81 505.811 2257.31 508.825C2258.43 510.174 2259.82 511.31 2260.88 512.699C2263.85 516.572 2267.8 517.866 2272.48 517.408C2273.35 517.323 2274.21 517.083 2275.08 516.969C2277.08 516.706 2278.47 517.42 2279 519.487C2279.57 521.753 2280.16 524.017 2280.76 526.277C2282.15 531.517 2285.94 534.916 2290.56 536.753C2295.28 538.632 2297.54 533.553 2300.85 531.495C2301.57 531.049 2302.14 530.286 2302.63 529.565C2304.44 526.869 2305.96 524.05 2305.74 520.686C2306.07 513.906 2303.76 507.987 2299.81 502.663Z" fill="#D22F2F" fill-opacity="0.15"/>
<path d="M1511.97 367.625C1517.71 365.268 1521.82 361.496 1523.54 355.377C1524.55 351.783 1527.02 349.383 1530.19 347.617C1533.5 345.778 1536.82 343.952 1540.12 342.089C1545.09 339.274 1546.79 334.305 1548.56 329.825C1548.18 327.9 1548.19 326.33 1546.81 325.425C1543.89 323.511 1541.02 321.502 1537.97 319.83C1535.35 318.396 1532.22 317.751 1529.46 318.698C1520.71 321.71 1512.78 325.826 1510.27 335.96C1509.22 340.18 1507.57 344.25 1506.54 348.474C1505.35 353.375 1503.63 357.888 1500.18 361.713C1498.85 363.196 1497.89 365.093 1497.05 366.932C1495.77 369.714 1497.61 372.33 1500.75 372.128C1502.45 372.019 1504.19 371.52 1505.77 370.848C1507.91 369.937 1509.83 368.508 1511.97 367.625Z" fill="#D22F2F" fill-opacity="0.15"/>
<path d="M963.901 1078.46C963.356 1075.92 963.31 1073.27 962.838 1070.7C962.121 1066.81 960.176 1063.4 956.758 1061.49C952.206 1058.94 947.544 1056.25 942.353 1056.95C936.673 1055.96 932.31 1058.58 927.796 1060.53C919.828 1063.97 912.254 1068.7 903.01 1067.84C902.448 1067.79 901.824 1067.93 901.291 1068.13C899.68 1068.76 897.846 1069.26 897.416 1071.25C897.003 1073.17 898.034 1074.67 899.423 1075.8C900.532 1076.7 901.805 1077.45 903.109 1078.05C905.494 1079.14 907.994 1079.97 910.375 1081.07C915.094 1083.24 919.859 1084.01 924.719 1081.68C929.033 1079.61 933.244 1080.34 937.471 1081.87C940.757 1083.06 944.07 1084.18 947.317 1085.47C952.086 1087.36 956.562 1085.69 960.867 1084.11C962.926 1083.35 964.517 1081.34 963.901 1078.46Z" fill="#D22F2F" fill-opacity="0.15"/>
<path d="M128.689 1306.58C127.547 1303.78 125.617 1301.33 122.994 1300.11C114.749 1296.28 106.334 1294.49 97.9419 1299.96C95.9859 1301.24 93.9179 1302.35 91.9019 1303.53C89.1249 1303.3 87.0319 1304.09 86.4629 1307.16C82.6389 1311.04 78.0359 1313.32 72.6349 1314.09C71.2019 1314.3 69.8029 1314.82 68.4259 1315.3C66.4199 1316.01 64.5339 1317.09 64.5739 1319.48C64.6129 1321.78 66.5079 1323 68.3239 1323.95C69.3229 1324.48 70.5549 1324.57 71.6899 1324.82C74.5499 1325.45 77.4629 1325.89 80.2669 1326.7C84.7849 1328.02 89.0239 1327.53 92.8619 1324.92C97.0689 1322.07 101.576 1321.85 106.328 1322.72C109.207 1323.25 112.091 1323.75 114.972 1324.27C118.532 1324.92 121.824 1324.44 125.192 1322.88C131.719 1319.87 132.349 1318.87 130.34 1311.54C129.88 1309.86 129.347 1308.19 128.689 1306.58Z" fill="#D22F2F" fill-opacity="0.15"/>
<path d="M1139.11 716.029C1136.73 717.031 1135.33 719.345 1135.54 721.609C1136.06 727.407 1136.76 733.38 1140.82 737.988C1143.7 741.252 1146.92 744.292 1150.33 746.984C1152.53 748.716 1154.38 751.312 1157.73 751.282C1160.71 751.256 1162.34 748.956 1164.47 747.533C1167.55 745.487 1170.44 745.473 1173.27 747.98C1173.92 748.555 1174.66 749.02 1175.36 749.536C1176.06 751.317 1177.78 751.937 1179.25 752.741C1180.72 753.543 1182.41 754.61 1184.02 753.179C1185.52 751.837 1184.86 749.95 1184.65 748.284C1184.36 746.057 1182.91 744.743 1180.84 744.059C1179.42 741.175 1177.49 738.422 1176.72 735.376C1175.5 730.5 1173.57 726.691 1168.38 725.172C1167.37 724.877 1166.4 723.864 1165.77 722.939C1160.68 715.513 1152.9 714.555 1144.93 714.347C1143 714.298 1140.97 715.247 1139.11 716.029Z" fill="#D22F2F" fill-opacity="0.15"/>
<path d="M1117.56 94.898C1120.49 99.904 1125 101.004 1130.34 100.515C1133 100.271 1135.55 99.848 1137.9 98.502C1140.67 96.911 1143.52 95.529 1146.48 94.247C1151.59 92.031 1155.03 88.131 1154.28 81.912C1154.26 76.947 1151.85 72.029 1147.2 67.414C1144.48 64.717 1140.71 64.439 1137.72 66.823C1136.58 67.729 1135.5 68.763 1134.58 69.888C1131.52 73.637 1127.84 76.305 1122.96 77.141C1119.96 77.655 1117.57 79.464 1115.35 81.346C1112.36 83.886 1112.08 87.477 1114.36 90.722C1115.37 92.155 1116.68 93.396 1117.56 94.898Z" fill="#D22F2F" fill-opacity="0.15"/>
<path d="M16.611 456.553C19.025 452.919 19.836 448.948 20.502 444.949C21.843 436.9 23.297 428.863 24.361 420.775C25.118 415.02 25.336 409.192 25.706 403.391C25.731 403.003 25.055 402.516 24.629 402.168C24.087 401.725 23.573 401.893 23.148 402.503C21.491 404.881 19.776 405.478 17.63 402.939C15.328 400.215 12.366 398.39 8.954 397.319H8.953C6.266 395.116 3.268 394.662 0 395.729C0 411.558 0 427.387 0 443.216C1.153 443.236 2.305 443.256 3.458 443.277C5.813 445.441 7.884 448.115 10.601 449.632C13.563 451.287 12.935 455.79 16.611 456.553Z" fill="#D22F2F" fill-opacity="0.15"/>
<path d="M1554.66 1336.74C1554.4 1336.87 1554.13 1337 1553.88 1337.15C1551.19 1338.72 1548.74 1338.18 1546.8 1335.95C1544.63 1333.46 1542.03 1331.67 1538.72 1329.97C1533.89 1337.88 1532.58 1341.42 1533.01 1349.5C1533.25 1353.96 1532.39 1357.55 1529.09 1360.53C1526.1 1363.24 1525.3 1367.03 1524.43 1370.68C1524.1 1372.07 1525.18 1373.47 1526.43 1374.37C1527.91 1375.45 1529.66 1374.89 1530.27 1373.7C1532.56 1369.21 1535.79 1370.51 1539.18 1371.78C1541.09 1372.49 1543 1373.33 1544.98 1373.71C1550.07 1374.69 1553.02 1372.76 1553.7 1367.68C1554.2 1363.93 1554.43 1360.04 1554.01 1356.3C1553.51 1351.76 1554.88 1348.31 1558.17 1345.39C1558.83 1344.81 1559.55 1344.26 1560.05 1343.56C1561.74 1341.22 1561.88 1337.69 1560.28 1336.24C1558.3 1334.45 1556.47 1335.88 1554.66 1336.74Z" fill="#D22F2F" fill-opacity="0.15"/>
<path d="M1328.72 495.798C1326.06 495.133 1322.61 496.327 1320.98 498.673C1319.99 500.102 1319.2 501.682 1318.44 503.254C1316.62 507.014 1314.37 510.259 1310.28 511.966C1307.21 513.244 1305.21 515.863 1303.47 518.589C1301.6 521.523 1302.02 525.01 1304.62 527.264C1306.82 529.169 1309.2 530.887 1311.6 532.541C1313.86 534.096 1316.35 534.477 1319.11 533.91C1322.61 533.193 1325.94 532.129 1328.69 529.847C1331.81 527.247 1334.64 524.324 1337.8 521.723C1340.45 519.536 1342.41 516.407 1342.22 514.078C1342.06 506.066 1335.09 497.396 1328.72 495.798Z" fill="#D22F2F" fill-opacity="0.15"/>
<path d="M2137.83 483.823C2133.16 481.836 2130.09 478.886 2128.53 474.182C2128.34 473.63 2128.1 473.097 2127.87 472.559C2126.69 469.717 2124.1 468.192 2121.84 466.443C2120.7 465.559 2119 465.763 2117.72 466.683C2116.35 467.678 2116.37 469.129 2116.81 470.611C2116.89 470.888 2116.96 471.201 2117.14 471.413C2119.15 473.824 2118.05 475.607 2116.08 477.358C2114.12 479.099 2112.11 480.83 2110.44 482.834C2106.81 487.195 2107.27 490.658 2111.82 493.943C2115.38 496.518 2119.29 498.538 2123.42 500.034C2126.12 501.01 2127.77 502.909 2128.79 505.445C2129.32 506.791 2129.57 508.254 2130.09 509.607C2130.87 511.611 2132.36 512.938 2134.35 513.754C2136.08 514.464 2138.2 513.608 2138.55 511.879C2138.78 510.754 2138.89 509.571 2138.83 508.425C2138.63 504.602 2140.41 502.448 2144.1 501.551C2146.94 500.858 2149.56 499.593 2152.05 497.117C2148.7 490.597 2143.84 486.375 2137.83 483.823Z" fill="#D22F2F" fill-opacity="0.15"/>
<path d="M1451.81 798.59C1452.3 797.556 1452.77 796.513 1453.29 795.492C1454.05 793.982 1455.39 792.275 1453.5 790.944C1452.01 789.897 1451.06 791.688 1449.98 792.511C1447.78 794.2 1446.3 797.037 1442.96 796.936C1437.33 793.132 1430.89 792.749 1424.45 793.02C1419.58 793.225 1414.55 792.77 1410.2 796.275C1407.13 798.754 1406.16 801.251 1408.81 804.089C1411.8 807.279 1414.72 810.784 1418.97 812.279C1422.4 813.481 1425.14 815.53 1427.91 817.69C1433.4 821.965 1438.61 822.503 1443.94 818.876C1447.07 816.754 1449.95 814.167 1452.54 811.412C1454.29 809.548 1455.66 807.172 1455.45 804.301C1455.25 801.719 1453.75 800.031 1451.81 798.59Z" fill="#D22F2F" fill-opacity="0.15"/>
<path d="M1143.26 377.762C1140.48 378.976 1138.99 380.891 1140.1 383.723C1141.82 388.105 1144.09 392.277 1147.86 395.228C1150.91 397.609 1153.56 400.268 1155.55 403.55C1158.79 408.923 1163.95 410.092 1169.24 408.559C1175.04 406.88 1180.98 404.769 1184.69 399.305C1187.13 395.963 1187.11 395.423 1184.43 392.217L1184.41 392.189C1184.21 389.56 1186.59 388.2 1187.4 386.08C1187.59 385.588 1187.64 384.682 1187.36 384.445C1186.75 383.937 1185.78 383.33 1185.13 383.487C1181.76 384.299 1179.07 386.993 1175.41 387.091C1171.13 381.742 1164.89 379.868 1158.71 378.294C1153.71 377.021 1148.57 375.441 1143.26 377.762Z" fill="#D22F2F" fill-opacity="0.15"/>
<path d="M191.866 925.417C186.51 924.06 181.051 923.116 176.704 919.248C175.885 918.519 174.615 918.274 173.529 917.872C171.059 916.958 168.499 915.761 166.251 918.218C164.103 920.565 164.843 923.355 166.11 925.584C170.634 933.546 173.383 941.896 174.193 951.104C174.651 956.312 177.641 957.956 182.771 957.622C184.224 957.527 185.662 957.129 187.113 957.084C191.54 956.946 194.04 954.321 195.463 950.53C197.315 945.597 198.673 940.525 198.549 935.944C199.1 927.798 198.757 927.163 191.866 925.417Z" fill="#D22F2F" fill-opacity="0.15"/>
<path d="M1091.18 730.675C1094.6 725.416 1095.76 719.373 1097.41 713.51C1098.24 710.565 1097.11 708.531 1094.35 707.069C1092.81 706.256 1091.12 705.724 1089.55 704.968C1085.38 702.962 1081.09 701.238 1078.01 697.404C1076.82 695.914 1074.72 695.037 1072.9 694.185C1068.45 692.111 1065.41 694.375 1066.07 699.414C1066.49 702.558 1067.26 705.708 1068.32 708.702C1069.79 712.895 1070.88 717.049 1069.97 721.086C1069.89 722.38 1069.82 723.251 1069.78 724.123C1069.35 733.674 1070.87 735.158 1080.28 736.153C1085.36 736.689 1088.58 734.692 1091.18 730.675Z" fill="#D22F2F" fill-opacity="0.15"/>
<path d="M497.053 981.376C495.031 981.369 493.006 980.541 490.99 980.573C481.27 980.727 477.354 981.945 473.591 990.629C473.359 991.165 473.062 991.673 472.84 992.213C471.438 995.614 472.116 998.138 475.552 999.197C479.62 1000.45 482.739 1002.83 485.953 1005.41C488.423 1007.39 491.428 1008.73 494.27 1010.21C495.274 1010.73 496.532 1011.18 497.616 1011.07C503.897 1010.46 510.999 1005.06 511.109 998.28C511.923 995.074 509.215 992.971 508.45 990.237C506.827 984.431 503.209 981.398 497.053 981.376Z" fill="#D22F2F" fill-opacity="0.15"/>
<path d="M1192.7 618.792C1189.9 615.252 1178.98 612.293 1174.93 613.803C1174.13 614.1 1173.36 614.599 1172.72 615.165C1169.88 617.678 1166.79 619.989 1164.38 622.869C1161.8 625.952 1159.14 629.26 1159.49 633.024C1159.38 637.443 1161.34 640.466 1162.79 643.607C1164.07 646.378 1166.74 647.391 1169.34 645.734C1173.41 643.138 1177.83 642.202 1182.46 641.39C1185.27 640.898 1187.94 639.466 1190.58 638.234C1192.16 637.494 1193.47 636.252 1194.12 634.513C1196.15 629.047 1196.54 623.662 1192.7 618.792Z" fill="#D22F2F" fill-opacity="0.15"/>
<path d="M2092.43 97.7959C2092.54 99.9379 2092.52 103.16 2092.96 106.32C2093.19 107.978 2093.89 109.778 2094.92 111.082C2098.64 115.761 2106.49 117.395 2111.67 114.815C2116.48 112.42 2122.2 102.468 2120.65 98.1099C2118.61 92.3749 2116.13 86.7569 2111.71 82.2739C2109.31 79.8379 2106.46 78.5909 2103.11 78.6359C2100.79 78.6669 2098.45 78.9139 2096.15 79.3119C2092.68 79.9149 2090.8 82.2729 2091.87 85.5379C2093.11 89.3009 2093.21 92.9449 2092.43 97.7959Z" fill="#D22F2F" fill-opacity="0.15"/>
<path d="M276.632 814.043C275.9 818.948 278.311 821.65 282.449 823.578C284.545 824.554 286.489 825.917 288.361 827.296C291.274 829.443 294.731 830.122 298.058 831.151C299.244 831.517 300.343 831.21 300.862 829.878C301.244 828.896 300.755 828.053 300.047 827.631C297.738 826.253 296.456 824.496 295.348 821.838C292.818 815.767 292.316 810.131 295.61 804.325C295.888 803.836 295.926 803.208 296.058 802.64C297.959 794.446 296.097 790.947 288.367 787.549C285.853 786.444 283.352 786.153 280.711 786.531C278.972 786.633 277.235 786.796 275.495 786.823C272.94 786.864 271.998 788.396 271.579 790.644C270.463 796.633 271.688 802.233 274.388 807.558C275.445 809.639 276.994 811.616 276.632 814.043Z" fill="#D22F2F" fill-opacity="0.15"/>
<path d="M911.823 678.818C913.656 677.965 915.681 677.474 917.662 676.997C921.178 676.15 923.931 673.963 926.752 671.929C927.287 671.543 927.566 670.376 927.461 669.642C927.338 668.789 926.315 668.048 925.527 668.415C921.898 670.104 918.938 668.082 915.594 667.273C910.468 666.034 907.461 663.139 905.487 658.576C904.062 655.282 901.48 652.887 898.837 650.566C897.677 649.547 896.365 649.078 892.929 649.472C889.529 650.054 884.585 651.55 881.303 656.251C880.31 657.674 879.312 659.095 878.313 660.514C876.328 663.333 876.394 663.666 878.765 666.469C882.687 671.106 887.764 673.8 893.569 675.135C895.565 675.594 897.85 675.534 899.215 677.138C902.997 681.581 907.204 680.968 911.823 678.818Z" fill="#D22F2F" fill-opacity="0.15"/>
<path d="M1521.84 690.845C1525.48 688.744 1528.66 685.795 1529.38 681.676C1530.02 678.053 1531.49 675.108 1533.3 672.07C1536.09 667.389 1534.72 663.688 1529.8 661.45C1527.86 660.572 1525.85 660.41 1523.19 660.448C1520.72 659.697 1518.6 661.589 1516.79 663.425C1514.26 665.984 1511.53 667.648 1508.06 668.874C1501.42 671.219 1499.99 677.546 1504.46 682.999C1507.68 686.919 1511.82 689.628 1516.7 691.122C1518.43 691.651 1520.27 691.751 1521.84 690.845Z" fill="#D22F2F" fill-opacity="0.15"/>
<path d="M1618.07 242.445C1612.4 239.317 1606.65 242.064 1605.43 248.286C1604.35 253.795 1604.94 259.277 1607.46 264.402C1608.26 266.02 1609.6 267.16 1611.42 267.553C1613.11 267.918 1614.79 268.571 1616.34 268.055C1618.54 267.606 1620.8 268.807 1622.52 267.412C1625.85 264.715 1629.76 264.01 1633.81 263.274C1637.17 262.663 1638.64 260.322 1638.63 256.959C1638.61 251.21 1634.55 246.31 1628.66 245.698C1624.83 245.301 1621.47 244.327 1618.07 242.445Z" fill="#D22F2F" fill-opacity="0.15"/>
<path d="M1288.84 276.828C1287.04 276.438 1285.34 276.452 1283.74 277.356C1279.64 279.672 1275.31 280.834 1270.56 281.375C1265.01 282.006 1262.37 287.476 1264.58 292.656C1266.8 297.874 1270.2 302.211 1275.16 305.165C1276.75 306.112 1278.54 306.561 1280.2 305.752C1284.33 303.733 1288.82 302.122 1290.46 297.034C1291.5 293.802 1294.22 291.906 1296.9 290.083C1297.44 287.201 1297.79 284.314 1297.13 281.401C1294.96 278.804 1292.08 277.53 1288.84 276.828Z" fill="#D22F2F" fill-opacity="0.15"/>
<path d="M624.243 1118.45C622.789 1117.41 621.013 1116.61 619.445 1118.16C616.352 1121.22 612.739 1122.48 608.392 1122.52C605.996 1122.54 603.991 1124.02 603.288 1126.64C601.794 1132.21 598.673 1137.28 598.299 1143.18C596.96 1144.14 597.274 1145.87 596.53 1147.03C593.543 1151.66 591.856 1156.34 594.748 1161.69C595.114 1162.37 594.955 1163.43 594.796 1164.27C593.139 1173.02 597.451 1179.5 603.137 1185.2C607.658 1189.74 613.147 1191.05 617.636 1183.95C618.408 1182.73 619.489 1181.68 619.481 1180.1C621.85 1178.06 622.959 1175.36 623.039 1172.36C623.164 1167.69 623.282 1163 622.893 1158.36C622.216 1150.27 622.069 1150.22 613.858 1148.31C610.284 1147.48 607.994 1145.56 607.784 1141.86C607.673 1139.91 606.294 1137.99 607.734 1135.47C611.51 1135.29 615.501 1135.1 619.453 1136.57C621.083 1137.18 622.805 1137.71 624.523 1137.87C628.078 1138.19 631.636 1135.54 631.513 1132.75C631.259 1126.91 629.1 1121.95 624.243 1118.45Z" fill="#D22F2F" fill-opacity="0.15"/>
<path d="M987.229 504.427C986.539 500.793 984.127 497.336 985.795 493.82C985.742 489.597 985.653 485.829 983.68 482.398C981.903 479.307 978.02 478.885 975.643 481.605C975.077 482.253 974.588 482.999 974.202 483.77C972.649 486.876 970.997 489.946 969.691 493.156C968.942 494.997 968.307 497.118 968.456 499.048C968.947 505.405 970.087 511.688 972.315 517.696C973.178 520.022 975.624 521.003 978.087 520.254C979.182 519.921 980.352 519.523 981.226 518.826C985.841 515.148 988.413 510.664 987.229 504.427Z" fill="#D22F2F" fill-opacity="0.15"/>
<path d="M480.16 751.33C480.938 748.975 479.595 746.54 477.224 745.772C475.475 745.206 473.765 745.356 472.035 745.79C469.203 746.501 466.317 747.044 463.553 747.959C461.642 748.592 459.615 749.408 458.133 750.705C453.272 754.962 449.195 759.951 445.946 765.545C444.423 768.168 445.275 770.598 447.737 772.426C449.514 773.745 451.51 773.888 453.562 773.996C459.209 774.268 462.107 773.117 465.627 768.413C468.257 764.899 470.899 761.588 474.639 759.084C477.303 757.302 479.119 754.479 480.16 751.33Z" fill="#D22F2F" fill-opacity="0.15"/>
<path d="M1253.74 410.468C1250.43 411.629 1247.11 412.606 1243.73 413.514C1240.55 414.369 1238.18 416.681 1236.47 419.516C1234.48 422.818 1235.6 425.965 1239.16 427.239C1239.99 427.532 1240.84 427.769 1241.7 427.897C1246.3 428.581 1250.98 428.572 1255.42 430.398C1257.5 431.252 1260.11 429.512 1261.08 427.283C1262.15 424.836 1262.33 422.212 1262.38 420.127C1262.27 418.414 1262.24 417.245 1262.11 416.086C1261.54 410.847 1258.66 408.742 1253.74 410.468Z" fill="#D22F2F" fill-opacity="0.15"/>
<path d="M300.609 605.901C297.188 607.486 293.808 609.169 290.485 610.95C287.558 612.519 285.536 614.974 284.363 618.088C283.019 621.655 284.552 624.6 288.199 625.37C289.325 625.608 290.517 625.773 291.654 625.676C295.986 625.31 300.231 624.496 304.673 625.403C307.427 625.965 309.53 623.699 309.979 620.772C310.156 619.623 310.159 618.448 310.231 617.437C310.222 614.773 309.415 610.816 308.497 608.776C306.944 605.327 304.172 604.25 300.609 605.901Z" fill="#D22F2F" fill-opacity="0.15"/>
<path d="M1478.32 970.683C1475.49 972.398 1472.58 973.626 1469.19 972.67C1468.31 972.67 1467.42 972.613 1466.55 972.68C1461.99 973.027 1459.44 977.524 1461.52 981.601C1462.49 983.509 1464.02 984.849 1466.16 985.318C1470.46 986.258 1474.66 987.406 1478.36 989.952C1479.05 990.43 1479.99 990.624 1480.85 990.791C1484.93 991.59 1487.98 988.836 1488.42 984.559C1488.95 979.468 1486.81 975.479 1483.79 971.801C1482.38 970.083 1480.43 969.4 1478.32 970.683Z" fill="#D22F2F" fill-opacity="0.15"/>
<path d="M282.042 490.552C286.068 491.558 289.676 493.305 292.942 495.867C293.834 496.567 294.994 497.019 296.102 497.331C299.641 498.327 303.205 495.978 303.754 492.351C303.928 491.197 303.977 490.025 304.158 488.041C304.389 484.834 302.687 481.488 300.415 478.388C299.303 476.871 297.482 475.872 295.818 476.76C291.654 478.983 287.434 478.604 283.04 478.01C280.954 477.728 278.991 478.544 277.96 480.687C276.884 482.923 276.671 485.152 278.021 487.371C278.971 488.929 280.299 490.117 282.042 490.552Z" fill="#D22F2F" fill-opacity="0.15"/>
<path d="M1194.38 464.815C1191.78 465.098 1189.12 465.451 1186.69 466.34C1177.42 469.737 1178.62 471.395 1182.48 477.369C1183.58 479.076 1184.59 480.876 1185.9 482.414C1188.86 485.905 1194.18 487.084 1198.61 485.507C1199.75 485.1 1200.88 484.6 1201.29 483.474C1202.46 480.21 1204.11 477.053 1203.91 473.896C1203.92 467.883 1199.95 464.206 1194.38 464.815Z" fill="#D22F2F" fill-opacity="0.15"/>
<path d="M1414.7 1139.16C1413.52 1137.18 1412.23 1135.2 1410.68 1133.51C1406.69 1129.19 1400.7 1129.56 1397.3 1134.26C1396.11 1135.9 1394.99 1137.63 1394.12 1139.45C1389.87 1148.33 1391.07 1150.58 1400.62 1151.92C1401.49 1152.04 1402.35 1152.15 1403.22 1152.27C1407.33 1152.87 1410.63 1151.16 1413.47 1148.47C1416.45 1145.64 1416.82 1142.75 1414.7 1139.16Z" fill="#D22F2F" fill-opacity="0.15"/>
<path d="M2254.23 1122.57C2251.69 1119.43 2245.85 1118.39 2243.2 1120.91C2239.42 1124.51 2235.87 1128.41 2234.32 1133.66C2233.84 1135.27 2234.09 1136.77 2235.47 1137.46C2239.37 1139.42 2243.46 1141.38 2247.47 1141.46C2252.08 1141.55 2255.64 1139.74 2258.15 1135.97C2260.21 1132.87 2258.27 1130.37 2257.36 1127.78C2256.7 1125.91 2255.49 1124.15 2254.23 1122.57Z" fill="#D22F2F" fill-opacity="0.15"/>
<path d="M1053.37 701.445C1051.34 698.364 1046.22 696.651 1043.34 698.4C1038.31 701.462 1034.24 705.555 1032.28 711.333C1031.86 712.561 1032.13 713.776 1033.2 714.408C1037.43 716.904 1041.65 719.472 1046.75 719.851C1050.23 719.15 1053.39 718.166 1055.81 715.191C1058.17 712.286 1056.43 709.633 1055.84 706.964C1055.41 705.03 1054.46 703.116 1053.37 701.445Z" fill="#D22F2F" fill-opacity="0.15"/>
<path d="M800.826 339.85C798.857 340.522 797.213 341.703 795.722 343.17C790.144 348.658 791.464 356.593 798.617 359.62C801.027 360.64 803.609 361.338 806.175 361.889C809.973 362.705 812.424 360.902 812.997 357.084C813.17 355.935 813.136 354.755 813.151 354.464C812.85 351.258 812.795 348.898 812.381 346.603C811.243 340.282 806.893 337.78 800.826 339.85Z" fill="#D22F2F" fill-opacity="0.15"/>
<path d="M2386.07 426.026C2383.83 426.612 2381.66 427.447 2379.47 428.222C2376.97 429.108 2374.74 430.404 2373.04 432.522C2371.56 434.375 2371.32 436.102 2372.77 438.058C2376.93 443.664 2382.74 446.628 2387.61 448.026C2392.07 448.372 2393.29 447.566 2393.74 445.092C2394.41 441.391 2395.18 437.691 2395.55 433.955C2396.11 428.32 2391.57 424.588 2386.07 426.026Z" fill="#D22F2F" fill-opacity="0.15"/>
<path d="M1745.88 14.388C1741.63 12.008 1737.12 9.75801 1732.08 9.60801C1727.47 9.47101 1725.84 11.341 1725.95 17.105C1726.56 21.453 1727.74 26.802 1731.41 31.194C1734.29 34.646 1735.76 34.613 1739.24 31.482C1741.6 29.356 1744.15 27.417 1746.36 25.149C1749.4 22.037 1749.3 16.3 1745.88 14.388Z" fill="#D22F2F" fill-opacity="0.15"/>
<path d="M1248.88 41.9578C1253.37 43.7898 1255.87 43.5198 1256.88 37.5488C1257.26 35.2588 1258.07 33.0408 1258.66 30.7858C1258.96 29.6658 1259.23 28.5358 1259.36 27.9978C1259.24 24.2038 1256.64 20.5038 1253.59 20.5418C1247.46 20.6188 1241.29 21.2788 1236.57 25.9908C1234.98 27.5828 1234.89 29.3908 1236.21 31.5658C1239.21 36.5018 1243.75 39.8678 1248.88 41.9578Z" fill="#D22F2F" fill-opacity="0.15"/>
<path d="M1406.22 431.323C1404.25 434.271 1404.2 435.915 1406.77 438.163C1412.53 443.193 1419.22 445.553 1426.92 444.742C1428.46 438.417 1427.59 432.06 1427.18 425.709C1423.47 422.448 1419.79 421.61 1415.33 424.733C1412.26 426.882 1408.47 427.967 1406.22 431.323Z" fill="#D22F2F" fill-opacity="0.15"/>
<path d="M456.685 537.876C459.051 542.551 462.514 543.342 466.532 539.945C468.961 537.891 471.095 535.446 473.149 533C476.449 529.071 476.249 525.715 472.643 522.192C469.998 519.608 466.748 518.5 464.022 518.635C456.8 518.764 452.132 524.568 453.696 530.606C454.347 533.121 455.503 535.542 456.685 537.876Z" fill="#D22F2F" fill-opacity="0.15"/>
<path d="M670.817 1069.54C667.37 1068.93 663.891 1068.51 660.235 1067.97C657.263 1068.58 654.105 1069.09 651.339 1070.95C649.074 1072.47 648.723 1074.14 650.681 1075.82C653.563 1078.28 656.534 1080.64 659.509 1083C664.128 1086.65 669.492 1086.71 673.717 1082.95C675.962 1080.94 677.322 1078.32 676.769 1075.14C676.193 1071.83 673.965 1070.09 670.817 1069.54Z" fill="#D22F2F" fill-opacity="0.15"/>
<path d="M1173.17 844.066C1176.07 845.722 1178.79 844.989 1181.31 843.206C1183.69 841.533 1186.07 839.853 1188.28 837.984C1191.03 835.664 1192.54 832.536 1193.38 829.078C1194.1 826.106 1192.93 824.699 1188.61 824.824C1186.13 825.195 1182.4 825.748 1178.67 826.311C1172.84 827.192 1169.2 831.074 1169.35 836.67C1169.44 839.607 1170.32 842.438 1173.17 844.066Z" fill="#D22F2F" fill-opacity="0.15"/>
<path d="M606.79 1217.19C604.554 1215.87 602.197 1214.58 599.197 1215.33C595.028 1214.59 591.48 1216.55 588.079 1218.84C587.425 1219.29 586.844 1220.13 586.646 1220.9C585.657 1224.72 591.28 1233.18 595.194 1233.9C595.479 1233.95 595.781 1234.08 596.049 1234.03C601.357 1233.08 606.117 1231.18 609.028 1226.25C610.868 1223.14 609.937 1219.05 606.79 1217.19Z" fill="#D22F2F" fill-opacity="0.15"/>
<path d="M1572.14 1023.49C1571.31 1023.35 1570.33 1023.34 1569.57 1023.66C1565.2 1025.47 1561.4 1028.05 1559.47 1032.59C1557.67 1036.83 1559.54 1040.85 1563.88 1042.29C1565.24 1042.74 1566.71 1042.88 1567.72 1043.08C1573.12 1042.27 1577.57 1040.48 1581.09 1036.74C1581.94 1035.84 1582.36 1034.75 1582.15 1033.57C1581.54 1030.01 1575.66 1024.09 1572.14 1023.49Z" fill="#D22F2F" fill-opacity="0.15"/>
<path d="M542.543 666.44C546.814 664.878 548.583 660.744 546.638 656.619C546.031 655.331 545.263 653.952 544.189 653.079C540.287 649.907 535.732 648.207 530.688 648.069C528.771 648.017 527.374 649.184 526.794 650.971C526.266 652.599 526.057 654.331 525.805 655.543C525.987 657.788 526.098 659.521 526.274 661.248C526.502 663.486 527.784 665.121 529.81 665.794C533.96 667.172 538.215 668.023 542.543 666.44Z" fill="#D22F2F" fill-opacity="0.15"/>
<path d="M1123.35 1291.48C1119.99 1290.67 1116.26 1292.72 1114.18 1296.59C1113.77 1297.34 1113.49 1298.18 1113.22 1299.01C1111.82 1303.37 1113.9 1308.34 1118.12 1310.83C1120.89 1312.46 1124.54 1311.02 1127.9 1307.32C1129.85 1305.18 1130.46 1302.86 1130 1300.36C1129.72 1294.64 1128.2 1292.66 1123.35 1291.48Z" fill="#D22F2F" fill-opacity="0.15"/>
<path d="M1108.27 1069.03C1106.84 1068.83 1105.35 1068.38 1103.99 1068.62C1100.56 1069.23 1097.32 1070.86 1093.66 1070.09C1092.93 1069.94 1092.01 1070.61 1091.21 1070.96C1088.1 1072.31 1087.05 1074.38 1087.6 1078.03C1088 1080.69 1089.94 1082 1093.45 1082.03C1096.37 1082.06 1099.15 1080.48 1102 1081.27C1104.76 1081.43 1107.29 1081.57 1109.74 1079.99C1112.49 1078.21 1112.45 1075.68 1112.22 1073.03C1112.02 1070.69 1110.58 1069.36 1108.27 1069.03Z" fill="#D22F2F" fill-opacity="0.15"/>
<path d="M728.593 778.039C725.202 779.513 723.049 782.138 721.966 785.626C721.008 788.712 722.592 794.035 725.251 795.814C728.251 797.821 731.198 796.873 734.207 795.31C738.05 793.314 739.342 790.066 739.475 787.339C740.173 780.233 733.994 775.691 728.593 778.039Z" fill="#D22F2F" fill-opacity="0.15"/>
<path d="M1945.43 1229.6C1942.18 1227.84 1939.23 1228.5 1936.48 1230.74C1933.84 1232.9 1932.31 1235.72 1932.25 1239.1C1932.2 1242.89 1933.95 1245.96 1937.25 1247.79C1939.85 1249.23 1942.38 1248.03 1944.69 1246.61C1948.17 1244.47 1950.47 1241.66 1949.83 1237.46C1950.71 1233.38 1948.48 1231.24 1945.43 1229.6Z" fill="#D22F2F" fill-opacity="0.15"/>
<path d="M1966.63 1006.6C1961.86 1005.9 1956.91 1006.04 1952.06 1006.25C1948.77 1006.39 1946.87 1008.84 1946.72 1012.03C1946.57 1015.12 1948.42 1017.65 1952 1017.67C1956.36 1017.7 1960.61 1018 1964.48 1019.05C1967.52 1018.84 1970.01 1018.39 1971.31 1015.56C1973.37 1011.06 1971.79 1007.36 1966.63 1006.6Z" fill="#D22F2F" fill-opacity="0.15"/>
<path d="M885.812 375.177C886.104 375.192 886.398 375.179 887.339 375.179C890.514 376.04 892.571 373.426 894.925 371.167C897.723 368.481 897.538 365.677 896.193 362.375C894.895 359.19 892.443 357.958 889.402 357.659C886.377 357.362 883.633 358.396 881.227 360.272C877.754 362.981 877.473 366.728 878.117 370.601C878.563 373.28 881.67 374.957 885.812 375.177Z" fill="#D22F2F" fill-opacity="0.15"/>
<path d="M778.579 559.003C777.779 558.664 776.936 558.186 776.113 558.186C772.039 558.185 767.982 558.122 764.872 557.13C760.021 557.252 757.98 559.103 757.662 562.895C757.419 565.8 759.405 568.15 763.046 568.546C765.934 568.86 768.851 568.669 771.563 570.053C772.587 570.576 773.764 570.88 774.907 571.073C778.559 571.69 781.576 569.538 782.589 565.698C783.398 562.634 782.141 560.514 778.579 559.003Z" fill="#D22F2F" fill-opacity="0.15"/>
<path d="M1047.35 212.592C1050.4 213.215 1054.81 209.62 1054.68 206.614C1054.54 206.048 1054.46 205.461 1054.25 204.92C1053.15 202.009 1042.67 192.69 1039.58 191.902C1037.39 191.344 1035.56 191.956 1034.09 193.697C1032.92 195.083 1032.05 196.481 1032.67 198.437C1033.51 201.142 1044.75 212.061 1047.35 212.592Z" fill="#D22F2F" fill-opacity="0.15"/>
<path d="M485.064 704.6C488.424 706.745 493.268 703.663 493.162 698.915C491.428 694.11 488.685 689.029 485.397 684.233C485.112 683.817 484.398 683.658 483.855 683.459C479.199 681.753 474.83 685.183 475.634 690.423C476.558 696.449 479.9 701.304 485.064 704.6Z" fill="#D22F2F" fill-opacity="0.15"/>
<path d="M2106.14 349.815C2104.35 348.836 2102.5 348.046 2098.79 348.148C2096.11 348.202 2092.48 349.583 2090.07 353.381C2089.05 354.994 2089.01 356.603 2089.94 358.267C2093.42 364.514 2097.8 365.839 2104.42 362.632C2105.2 362.254 2106.04 361.979 2106.76 361.515C2111.71 358.339 2111.4 352.694 2106.14 349.815Z" fill="#D22F2F" fill-opacity="0.15"/>
<path d="M858.928 1268.42C857.032 1266.55 854.628 1266.99 852.375 1267.91C850.174 1268.81 849.506 1270.64 849.644 1273.94C849.657 1274.02 849.583 1275.29 850.069 1276.29C852.752 1281.79 857.16 1285.42 862.937 1287.28C865.141 1287.99 866.885 1286.76 868.214 1285.04C869.771 1283.03 870.05 1280.44 868.451 1278.58C865.426 1275.06 862.229 1271.68 858.928 1268.42Z" fill="#D22F2F" fill-opacity="0.15"/>
<path d="M1696.6 1173.99C1696.48 1173.42 1696.51 1172.75 1696.22 1172.29C1693.58 1168.09 1691.09 1163.78 1688.14 1159.81C1686.64 1157.79 1684.05 1157.85 1681.65 1158.63C1679.79 1159.23 1678.82 1160.53 1678.41 1162.39C1678.03 1164.13 1677.78 1165.82 1678.48 1167.56C1680.5 1172.62 1683.71 1176.69 1688.57 1179.24C1692.04 1181.07 1696.76 1177.9 1696.6 1173.99Z" fill="#D22F2F" fill-opacity="0.15"/>
<path d="M732.819 165.177C735.469 165.154 737.831 163.303 738.322 160.47C738.818 157.603 738.976 154.678 739.282 151.779C739.193 151.766 739.104 151.753 739.015 151.74C739.258 150.313 739.639 148.894 739.714 147.459C739.846 144.938 738.062 142.747 735.272 141.638C733.002 140.736 731.276 141.721 729.806 143.27C728.818 144.311 727.62 145.432 727.247 146.728C725.847 151.59 725.938 156.554 727.405 161.393C728.105 163.699 730.586 165.196 732.819 165.177Z" fill="#D22F2F" fill-opacity="0.15"/>
<path d="M1240.83 730.076C1243.6 730.15 1245.76 729.807 1247.28 727.532C1251.08 721.873 1249.66 717.638 1243.14 715.511C1242.31 715.24 1241.49 714.883 1240.63 714.754C1236.52 714.134 1233.14 715.519 1230.7 718.837C1228.53 721.78 1229.19 725.148 1232.23 727.16C1234.92 728.947 1237.76 730.439 1240.83 730.076Z" fill="#D22F2F" fill-opacity="0.15"/>
<path d="M2156.82 681.186C2154.21 681.325 2151.8 682.513 2150.07 684.703C2148.28 686.958 2148.21 689.722 2150.1 691.804C2152.68 694.663 2155.65 696.783 2159.73 697.093C2164.04 697.419 2168.31 693.77 2168.38 688.8C2168.2 688.278 2168.07 687.004 2167.39 686.167C2164.71 682.83 2161.11 680.957 2156.82 681.186Z" fill="#D22F2F" fill-opacity="0.15"/>
<path d="M1008.73 261.614C1008.75 260.118 1008.49 258.633 1007.42 257.575C1004.45 254.618 1001.07 252.522 996.604 253.011C993.852 253.312 991.559 254.445 990.053 256.788C988.883 258.608 988.619 260.545 990.04 262.458C992.36 265.582 995.259 267.877 999.066 268.903C1003.79 270.176 1008.59 266.55 1008.73 261.614Z" fill="#D22F2F" fill-opacity="0.15"/>
<path d="M354.915 938.085C349.185 937.949 343.958 941.383 341.92 946.627C340.802 949.504 341.34 951.797 343.503 953.764C345.505 955.584 347.838 955.673 350.005 954.54C353.625 952.648 357.06 950.408 359.368 946.863C360.33 945.384 361.329 943.906 360.231 942.055C359.008 939.994 357.618 938.159 354.915 938.085Z" fill="#D22F2F" fill-opacity="0.15"/>
<path d="M707.764 317.871C707.682 316.075 708.616 315.296 710.268 314.958C713.165 314.366 715.998 315.099 719.408 315.634C717.826 310.742 714.986 307.658 711.089 305.505C708.123 303.867 704.439 303.054 702.074 305.422C699.665 307.835 697.712 307.434 695.135 306.774C693.939 306.468 693.01 308.063 693.697 309.173C696.506 313.71 700.358 317.206 705.006 319.74C706.486 320.547 707.859 319.941 707.764 317.871Z" fill="#D22F2F" fill-opacity="0.15"/>
<path d="M1402.9 84.4262C1409.39 83.7142 1411.79 79.4242 1409.14 73.3712C1407.79 70.2882 1405.74 68.0432 1402.6 66.8232C1400.62 66.0572 1398.59 66.0442 1396.66 66.7952C1394.63 67.5782 1393.36 69.0872 1393.22 71.2732C1393.48 75.4842 1394.32 79.3522 1397.46 82.4072C1399.02 83.9272 1400.7 84.6682 1402.9 84.4262Z" fill="#D22F2F" fill-opacity="0.15"/>
<path d="M79.6083 247.126C83.9533 246.365 87.9813 244.808 91.3203 241.776C94.2023 239.159 93.0363 233.953 89.2183 232.695C88.1283 232.336 86.9473 232.254 86.8603 232.238C80.6573 231.618 76.8883 233.822 73.9483 237.896C72.3563 240.101 72.6643 242.225 73.7513 244.426C74.7313 246.41 77.0113 247.58 79.6083 247.126Z" fill="#D22F2F" fill-opacity="0.15"/>
<path d="M562.548 837.003C558.408 834.18 554.862 833.08 551.028 833.288C546.73 833.521 542.875 834.745 542.029 839.739C541.636 842.055 539.9 842.118 538.32 842.705C537.553 842.99 536.524 843.427 536.896 844.501C537.145 845.219 537.752 846.031 538.416 846.352C542.693 848.416 547.359 848.524 551.97 848.695C553.928 848.767 554.524 847.445 553.573 844.771C553.087 843.407 553.474 842.683 554.304 841.759C556.299 839.537 559.163 838.778 562.548 837.003Z" fill="#D22F2F" fill-opacity="0.15"/>
<path d="M1250.59 747.063C1244.84 745.256 1237.92 748.437 1235.38 753.938C1234.28 756.338 1234.77 758.472 1236.18 760.434C1237.5 762.286 1239.56 762.579 1241.64 762.159C1246.62 761.152 1250.78 758.677 1253.96 754.687C1254.45 754.073 1254.52 753.124 1254.68 752.643C1254.39 750.23 1252.37 747.621 1250.59 747.063Z" fill="#D22F2F" fill-opacity="0.15"/>
<path d="M1656.43 233.654C1652.08 234.012 1650.93 237.546 1649.29 240.496C1646.94 244.718 1649.57 248.938 1655.04 248.771C1657.52 248.324 1660.43 247.088 1662.74 244.763C1664.35 243.145 1664.65 239.372 1663.6 237.389C1662.09 234.541 1659.51 233.4 1656.43 233.654Z" fill="#D22F2F" fill-opacity="0.15"/>
<path d="M1531.34 631.282C1527.91 631.422 1524.89 634.685 1525.25 638.239C1525.45 640.21 1526.3 642.111 1526.8 644.056C1527.36 646.2 1528.55 647.645 1530.85 647.938C1533.54 648.279 1536.31 647.036 1537.3 644.612C1538.17 642.511 1538.55 640.21 1538.93 638.789C1538.82 634.28 1535.23 631.123 1531.34 631.282Z" fill="#D22F2F" fill-opacity="0.15"/>
<path d="M1306.86 265.408C1308.1 263.849 1309.07 262.019 1309.89 260.19C1311.24 257.185 1309.41 252.924 1306.33 251.504C1303.08 250.006 1300.05 250.889 1297.95 253.802C1296.66 255.595 1296.53 257.526 1296.8 259.275C1296.88 261.027 1296.79 262.503 1297.07 263.906C1297.43 265.758 1298.77 266.878 1300.58 267.328C1303.04 267.936 1305.3 267.363 1306.86 265.408Z" fill="#D22F2F" fill-opacity="0.15"/>
<path d="M695.416 829.462C692.283 828.019 689.58 829.249 687.455 831.195C685.362 833.111 683.716 835.592 682.185 838.021C680.636 840.478 682.361 843.578 685.371 843.547C688.739 843.512 692.108 843.096 696.051 843.955C695.441 840.029 696.879 837.199 697.852 834.233C698.581 832.008 697.604 830.47 695.416 829.462Z" fill="#D22F2F" fill-opacity="0.15"/>
<path d="M1065.22 260.978C1067.22 262.328 1069.76 262.008 1071.77 260.448C1073.99 258.727 1075.25 256.53 1075.11 253.65C1075.24 250.687 1074.19 248.999 1071.48 248.562C1069.19 248.193 1066.78 247.866 1064.52 248.193C1059.87 248.865 1058.18 253.957 1061.29 257.502C1062.44 258.808 1063.78 260.006 1065.22 260.978Z" fill="#D22F2F" fill-opacity="0.15"/>
<path d="M1603.82 699.142C1602.19 698.217 1600.5 697.975 1598.78 698.476C1594.31 699.771 1591.51 703.104 1589.14 706.817C1588.18 708.32 1589.16 710.421 1590.88 711.099C1591.95 711.518 1593.06 711.822 1593.96 712.116C1599.02 711.262 1603.16 709.48 1605.62 704.945C1606.91 702.553 1606.25 700.518 1603.82 699.142Z" fill="#D22F2F" fill-opacity="0.15"/>
<path d="M355.379 309.568C352.121 309.49 349.956 312.354 351.099 315.39C352.659 319.532 355.299 322.937 358.704 325.734C360.447 327.166 362.611 326.64 363.868 324.742C368.468 317.793 361.06 309.447 355.379 309.568Z" fill="#D22F2F" fill-opacity="0.15"/>
<path d="M1120.3 594.863C1119.28 599.686 1122.45 605.052 1127.11 606.391C1129.87 607.185 1134.14 604.786 1134.69 602.133C1135.58 597.802 1130.11 591.216 1125.65 591.241C1123.26 591.254 1120.7 592.987 1120.3 594.863Z" fill="#D22F2F" fill-opacity="0.15"/>
<path d="M632.118 941.18C631.578 941.317 631.085 941.682 630.598 941.985C628.678 943.178 628.055 945.325 629.248 947.22C631.942 951.499 635.842 954.309 640.502 956.119C643.273 955.879 643.957 954.714 644.408 953.42C645.722 949.654 644.278 946.536 641.629 944.041C639.021 941.584 635.846 940.235 632.118 941.18Z" fill="#D22F2F" fill-opacity="0.15"/>
<path d="M640.716 956.192C640.678 956.185 640.636 956.175 640.594 956.159C640.563 956.147 640.534 956.133 640.503 956.121C640.289 956.14 640.09 956.165 639.85 956.172C640.33 956.171 640.588 956.182 640.716 956.192Z" fill="#D22F2F" fill-opacity="0.15"/>
<path d="M1532.34 812.634C1532.78 811.565 1533.03 810.421 1533.19 809.896C1533.43 803.578 1528.56 798.363 1522.95 798.266C1519.65 798.209 1517.35 801.208 1518.71 804.248C1520.65 808.59 1523.69 812.116 1527.94 814.432C1529.38 815.215 1531.69 814.238 1532.34 812.634Z" fill="#D22F2F" fill-opacity="0.15"/>
<path d="M206.732 806.66C203.72 806.65 200.628 809.145 200.628 811.243C200.628 815.562 203.959 820.008 207.987 821.063C210.631 821.756 213.976 820.329 215.566 817.831C216.562 816.267 216.167 813.246 214.518 811.277C212.383 808.727 209.579 807.252 206.732 806.66Z" fill="#D22F2F" fill-opacity="0.15"/>
<path d="M446.249 225.491C447.356 224.161 448.528 222.574 447.731 220.744C446.867 218.762 445.126 217.5 442.923 217.502C441.216 217.503 439.207 217.535 437.865 218.39C435.207 220.082 432.817 222.246 430.516 224.426C429.23 225.644 429.81 228.028 431.394 228.865C432.652 229.53 433.999 230.029 434.582 230.284C439.214 230.463 443.715 228.537 446.249 225.491Z" fill="#D22F2F" fill-opacity="0.15"/>
<path d="M710.762 662.045C707.448 659.452 702.762 661.115 701.893 665.142C701.589 666.55 701.444 668.026 701.481 669.465C701.583 673.463 704.155 675.759 708.437 675.676C711.532 675.814 713.87 674.111 715.426 671.527C716.943 669.01 714.707 667.21 713.546 665.326C712.799 664.115 711.872 662.914 710.762 662.045Z" fill="#D22F2F" fill-opacity="0.15"/>
<path d="M662.968 859.333C663.514 857.071 661.661 854.853 658.369 853.925C657.253 853.61 656.093 853.447 654.773 853.177C653.189 853.521 651.429 853.723 649.8 854.297C646.676 855.398 645.921 859.24 648.355 861.332C650.387 863.078 652.777 864.146 655.384 864.76C658.85 865.576 662.002 863.335 662.968 859.333Z" fill="#D22F2F" fill-opacity="0.15"/>
<path d="M1554.33 715.996C1551.63 716.659 1550.36 720.192 1552.21 722.227C1553.76 723.929 1555.37 725.579 1557.56 726.639C1561.69 728.647 1564.73 727.634 1566.76 723.386C1567.65 721.521 1567.17 719.939 1565.81 718.649C1563.34 716.3 1560.19 715.772 1556.67 715.666C1556.06 715.748 1555.17 715.79 1554.33 715.996Z" fill="#D22F2F" fill-opacity="0.15"/>
<path d="M404.406 232.86C401.935 231.322 399.274 230.248 394.531 230.429C394.383 230.43 392.947 231.253 392.052 232.918C391.069 234.747 392.01 236.187 393.016 237.654C394.542 239.882 396.675 241.318 399.074 242.376C401.783 243.571 404.523 242.436 406.361 239.489C407.796 237.189 407.075 234.522 404.406 232.86Z" fill="#D22F2F" fill-opacity="0.15"/>
<path d="M940.995 563.049C945.126 565.726 952.359 566.614 955.495 564.589C956.656 563.84 957.487 562.532 958.354 561.393C959.103 560.408 959.289 559.197 958.552 558.157C957.868 557.191 956.851 556.556 955.56 556.951C953.62 557.544 951.635 558.047 949.782 558.85C947.614 559.789 946.632 558.048 945.238 557.185C944.329 553.89 943.522 550.561 942.473 547.311C941.85 545.381 939.747 544.629 937.453 545.183C935.158 545.738 933.729 547.347 934.362 549.512C935.784 554.376 936.926 559.452 940.995 563.049Z" fill="#D22F2F" fill-opacity="0.15"/>
<path d="M1651.22 188.815C1655.26 187.398 1659.57 180.552 1659.12 176.126C1659.04 175.277 1658.22 174.447 1657.26 174.669C1652.58 175.75 1648.48 177.827 1645.74 181.977C1644.67 183.609 1644.86 185.321 1645.84 186.936C1646.66 188.289 1648.01 188.814 1649.5 189.064C1650.07 188.986 1650.68 189.003 1651.22 188.815Z" fill="#D22F2F" fill-opacity="0.15"/>
<path d="M1472.05 1300.99C1471.48 1300.93 1470.89 1300.98 1469.71 1300.98C1469.44 1301.01 1468.57 1301.06 1467.71 1301.19C1465.92 1301.45 1464.17 1301.96 1463.76 1303.98C1463.39 1305.75 1463.81 1307.46 1465.29 1308.7C1467.34 1310.44 1469.59 1311.61 1472.41 1311.07C1475.56 1310.46 1477.75 1308.53 1477.87 1306.25C1478.01 1303.61 1475.46 1301.3 1472.05 1300.99Z" fill="#D22F2F" fill-opacity="0.15"/>
<path d="M1113.81 626.587C1111.54 624.874 1108.53 626.095 1107.69 628.907C1106.43 633.154 1108.85 637.441 1113.38 638.961C1116.48 639.999 1119.2 638.073 1119.3 634.773C1119.39 630.772 1116.56 628.658 1113.81 626.587Z" fill="#D22F2F" fill-opacity="0.15"/>
<path d="M1062.96 879.265C1062.52 879.243 1060.72 879.242 1059.74 881.104C1058.86 882.777 1059.05 884.56 1059.92 886.142C1061.72 889.394 1064.93 890.678 1068.88 890.043C1070.78 889.737 1072.2 888.8 1072.81 887.029C1073.45 885.201 1072.61 883.491 1071.44 882.189C1069.59 880.119 1067 879.505 1062.96 879.265Z" fill="#D22F2F" fill-opacity="0.15"/>
<path d="M2288.11 1300.08C2285.76 1298.74 2283.11 1298.65 2280.46 1298.97C2277.97 1299.28 2276.34 1301.88 2277.46 1304.13C2280.08 1309.45 2284.83 1311.07 2289.64 1307.88C2290.63 1307.22 2291.26 1306.22 2291.31 1304.32C2291.26 1302.67 2289.93 1301.12 2288.11 1300.08Z" fill="#D22F2F" fill-opacity="0.15"/>
<path d="M1186 656.044C1187.75 655.747 1189.47 655.163 1190.05 653.312C1190.62 651.533 1189.81 649.966 1188.62 648.611C1186.74 646.468 1184.25 645.702 1181.64 646.393C1179.82 646.874 1177.78 647.34 1176.5 648.992C1176.17 650.446 1177.47 651.002 1178 651.95C1180.31 656.059 1181.71 656.777 1186 656.044Z" fill="#D22F2F" fill-opacity="0.15"/>
<path d="M31.9139 802.465C30.3119 803.141 28.6619 803.858 27.2959 804.902C24.7479 806.849 23.0039 805.174 21.1029 803.884C19.8039 801.008 18.6199 798.071 17.1649 795.276C16.2239 793.467 14.1289 793.224 11.8459 794.317C9.39893 795.488 8.52893 796.916 9.56493 799.06C11.6669 803.411 13.8119 807.794 17.9069 810.752C18.2699 811.196 18.5629 811.932 19.0069 812.038C23.0129 812.997 26.9949 812.675 30.9029 811.467C33.7229 810.595 34.9959 808.321 35.6139 805.682C35.7819 804.965 35.3879 803.988 34.9759 803.293C34.2859 802.131 33.0329 801.993 31.9139 802.465Z" fill="#D22F2F" fill-opacity="0.15"/>
<path d="M2349.23 1269.41C2346.65 1270.41 2344.06 1273.71 2344.23 1276.02C2344.36 1277.87 2346.3 1277.72 2347.34 1278.58C2349.2 1280.11 2351.01 1280 2352.89 1278.75C2355.15 1277.26 2356.86 1275.39 2357.17 1272.6C2356.91 1272.01 2356.77 1271.4 2356.42 1270.98C2354.86 1269.13 2351.66 1268.47 2349.23 1269.41Z" fill="#D22F2F" fill-opacity="0.15"/>
<path d="M1598.67 734.853C1596.08 734.543 1593.06 737.117 1592.71 739.941C1592.3 743.164 1594.86 745.93 1598.41 746.1C1601.21 746.235 1603.87 743.702 1604.05 740.724C1604.19 738.472 1601.14 735.149 1598.67 734.853Z" fill="#D22F2F" fill-opacity="0.15"/>
<path d="M311.631 842.205C311.476 839.07 309.178 836.725 306.211 836.673C302.732 836.613 300.834 838.391 300.79 841.755C300.737 845.77 302.695 847.934 306.233 847.769C309.231 847.63 311.77 845.013 311.631 842.205Z" fill="#D22F2F" fill-opacity="0.15"/>
<path d="M849.425 446.541C848.061 450.735 850.939 454.904 855.381 455.087C856.144 455.118 857.095 454.685 857.681 454.158C859.559 452.471 859.958 449.487 858.827 446.918C857.913 444.841 855.468 443.319 853.259 443.452C851.337 443.683 850.016 444.726 849.425 446.541Z" fill="#D22F2F" fill-opacity="0.15"/>
<path d="M515.821 346.805C514.119 345.569 512.203 344.947 510.074 345.101C509.491 345.133 508.898 345.105 508.327 345.205C506.827 345.466 505.442 346.115 504.92 347.589C504.285 349.383 504.802 351.036 506.362 352.236C508.809 354.117 511.534 354.838 514.577 354.073C516.071 353.697 517.207 352.93 517.623 351.323C518.131 349.358 517.348 347.914 515.821 346.805Z" fill="#D22F2F" fill-opacity="0.15"/>
<path d="M795.506 933.853C793.1 933.394 790.925 934.061 788.777 935.038C787.323 935.699 786.409 936.801 786.436 938.356C786.462 939.882 787.312 941.18 788.722 941.786C790.029 942.347 791.478 942.578 792.83 942.945C794.063 942.68 795.212 942.515 796.309 942.18C798.49 941.513 799.836 939.641 799.654 937.69C799.485 935.88 797.699 934.271 795.506 933.853Z" fill="#D22F2F" fill-opacity="0.15"/>
<path d="M1686.11 827.235C1688.58 825.859 1688.65 822.325 1686.32 820.714C1684.53 819.483 1682.59 819.187 1680.19 819.297C1679.64 819.363 1678.77 819.439 1677.92 819.581C1676.34 819.841 1675.21 820.751 1674.91 822.302C1674.62 823.796 1675.12 825.265 1676.28 826.236C1679.1 828.572 1683.1 828.913 1686.11 827.235Z" fill="#D22F2F" fill-opacity="0.15"/>
<path d="M1532.56 1259.32C1529.59 1259.26 1527.73 1261.06 1525.81 1262.87C1526.84 1268.89 1526.89 1268.94 1533 1270.06C1534.35 1268.54 1535.87 1267.19 1536.63 1265.18C1537.84 1261.92 1536.07 1259.39 1532.56 1259.32Z" fill="#D22F2F" fill-opacity="0.15"/>
<path d="M293.517 591.586C294.811 591.421 295.438 590.436 295.73 589.252C296.279 587.026 296.957 584.814 297.271 582.553C297.468 581.136 297.04 579.628 295.468 578.969C294.198 578.437 293.38 579.374 292.455 580.044C290.87 581.19 289.206 582.228 287.233 583.538C288.091 585.739 288.747 587.937 289.796 589.929C290.485 591.237 291.986 591.782 293.517 591.586Z" fill="#D22F2F" fill-opacity="0.15"/>
<path d="M1141.15 861.668C1141.88 860.315 1140.98 858.053 1139.41 857.234C1136.55 855.735 1133.84 855.987 1131.32 858.048C1125.47 859.938 1126.85 865.176 1126.25 869.741C1127.6 867.7 1128.66 865.314 1131.53 865.397C1132.24 865.859 1132.96 866.728 1133.66 866.716C1137.19 866.657 1139.55 864.648 1141.15 861.668Z" fill="#D22F2F" fill-opacity="0.15"/>
<path d="M735.087 511.407C733.157 510.392 730.901 511.031 731.325 512.937C731.865 515.371 730.474 517.507 730.989 520.057C732.731 520.832 734.537 521.787 736.447 522.436C737.918 522.935 739.41 522.415 740.431 521.266C741.584 519.967 741.249 518.435 740.132 517.354C738.251 515.535 737.625 512.741 735.087 511.407Z" fill="#D22F2F" fill-opacity="0.15"/>
<path d="M413.345 139.207C410.596 139.031 407.425 141.734 407.414 144.264C407.402 146.886 409.68 149.413 412.145 149.513C415.006 149.629 417.278 147.186 417.378 143.887C417.456 141.316 415.772 139.362 413.345 139.207Z" fill="#D22F2F" fill-opacity="0.15"/>
<path d="M1581.57 210.091C1582.23 208.344 1581.57 205.618 1580.25 204.612C1578.73 203.448 1577.56 204.717 1576.38 205.271C1575.13 205.861 1573.86 206.629 1572.93 207.625C1571.91 208.711 1571.85 210.197 1572.49 211.628C1573.13 213.033 1574.22 213.847 1575.61 214.177C1578.05 214.44 1580.6 212.66 1581.57 210.091Z" fill="#D22F2F" fill-opacity="0.15"/>
<path d="M644.027 761.668C640.961 761.413 638.374 763.718 638.244 766.819C638.144 769.193 640.765 771.973 643.129 772.002C645.527 772.031 647.73 769.51 647.788 766.67C647.843 764.003 646.225 761.851 644.027 761.668Z" fill="#D22F2F" fill-opacity="0.15"/>
<path d="M1671.58 988.208C1669.39 988.298 1667.65 989.198 1666.84 991.326C1666.13 993.185 1667.79 995.83 1670.1 996.753C1672.75 997.808 1677.3 995.016 1677.23 992.379C1677.17 990.006 1674.6 988.084 1671.58 988.208Z" fill="#D22F2F" fill-opacity="0.15"/>
<path d="M1568.41 628.943C1568.8 626.112 1566.94 623.6 1564.37 623.486C1561.88 623.376 1559.32 625.472 1558.91 627.953C1558.52 630.325 1560.73 633.221 1563.14 633.482C1565.63 633.752 1568.04 631.68 1568.41 628.943Z" fill="#D22F2F" fill-opacity="0.15"/>
<path d="M564.538 861.36C561.881 863.317 561.21 867.251 563.245 869.649C564.444 871.062 566.155 871.376 567.904 870.959C569.102 870.673 569.782 869.755 570.052 867.72C569.61 866.243 569.039 864.044 568.279 861.913C567.86 860.741 565.702 860.502 564.538 861.36Z" fill="#D22F2F" fill-opacity="0.15"/>
<path d="M2356.11 793.624C2353.54 794.912 2351.03 796.331 2348.35 797.799C2346.27 797.372 2345.17 794.374 2342.43 795C2339.41 793.93 2336.46 792.515 2333.35 791.862C2326.85 790.495 2320.31 788.554 2313.68 791.677C2310.5 793.177 2309.09 795.566 2310.76 798.448C2313.09 802.478 2315.53 806.625 2319.67 809.053C2323.05 811.026 2325.73 813.573 2328.06 816.61C2331.57 821.182 2336.37 821.92 2341.44 820.376C2345.91 819.011 2349.92 816.446 2353.49 813.412C2355 812.13 2356.28 810.396 2356.71 808.304C2357.22 805.834 2356.43 803.704 2354.9 801.793C2354.8 799.172 2357.82 798.216 2358.08 795.819C2358.13 795.313 2357.9 794.644 2357.56 794.264C2357.23 793.891 2356.42 793.465 2356.11 793.624Z" fill="#D22F2F" fill-opacity="0.15"/>
<path d="M311.798 224.889C313.41 225.146 314.863 223.81 315.144 221.703C315.297 220.554 315.302 219.386 315.362 218.427C315.329 216.764 315.26 215.304 313.697 214.565C312.064 213.793 309.518 214.843 308.655 216.862C308.104 218.15 307.801 219.627 307.761 221.03C307.705 222.922 309.558 224.532 311.798 224.889Z" fill="#D22F2F" fill-opacity="0.15"/>
<path d="M1488.49 280.089C1486.24 279.66 1483.78 279.937 1481.7 279.15C1479.01 278.135 1480.98 274.016 1478.16 272.729C1476.44 270.014 1475 267.079 1472.97 264.631C1468.9 259.726 1465.04 254.523 1458.37 252.619C1454.35 251.474 1451.77 252.284 1451.2 255.958C1450.54 260.278 1449.85 264.749 1451.42 268.992C1452.98 273.194 1453.67 277.464 1453.48 281.887C1453.34 285.145 1454.95 287.477 1457.27 289.392C1463.72 294.72 1471.29 294.743 1478.9 293.333C1482.01 292.757 1483.5 289.964 1483.67 286.725C1485.42 285.756 1487.24 284.879 1488.89 283.773C1489.52 283.356 1490.16 282.38 1490.11 281.71C1490.06 281.11 1489.15 280.214 1488.49 280.089Z" fill="#D22F2F" fill-opacity="0.15"/>
<path d="M1997.47 592.695C1996.96 592.891 1996.4 593.293 1996.13 593.754C1994.73 596.179 1997.37 600.88 2000.25 601.158C2001.97 601.324 2004.45 599.021 2004.36 597.337C2004.18 594.024 2000.51 591.526 1997.47 592.695Z" fill="#D22F2F" fill-opacity="0.15"/>
<path d="M849.913 158.29C851.459 158.469 853.584 157.103 853.924 155.602C854.436 153.344 853.432 151.701 851.621 150.455C850.077 149.392 848.474 149.133 846.821 150.202C846.588 150.352 846.39 150.605 846.257 150.853C844.827 153.512 847.018 157.955 849.913 158.29Z" fill="#D22F2F" fill-opacity="0.15"/>
<path d="M1679.54 84.799C1680.43 85.472 1681.52 85.883 1682.58 86.452C1683.44 85.877 1684.35 85.572 1684.76 84.944C1686.33 82.51 1685.56 79.779 1683.04 78.293C1681.15 77.18 1678.65 77.466 1677.49 78.93C1676.26 80.476 1677.05 82.906 1679.54 84.799Z" fill="#D22F2F" fill-opacity="0.15"/>
<path d="M1425.52 1273.31C1421.91 1274.38 1418.79 1276.41 1415.87 1278.73C1415.39 1279.11 1415.17 1280.46 1415.47 1281.02C1415.79 1281.6 1416.92 1282.16 1417.62 1282.07C1421.92 1281.55 1424.74 1278.74 1427.18 1275.46C1427.33 1275.27 1427.24 1274.9 1427.26 1274.62C1427.05 1273.68 1426.49 1273.03 1425.52 1273.31Z" fill="#D22F2F" fill-opacity="0.15"/>
<path d="M1241.16 954.56C1239.52 954.816 1238.9 956.321 1239.47 958.753C1239.73 959.871 1240.06 961 1240.55 962.032C1241.14 963.264 1242.26 963.35 1243.47 962.992C1244.85 962.581 1246.27 962.23 1246.72 960.354C1246.39 959.147 1246.21 957.66 1245.57 956.409C1244.7 954.694 1242.99 954.272 1241.16 954.56Z" fill="#D22F2F" fill-opacity="0.15"/>
<path d="M1062.74 657.702C1062.63 660.57 1065.29 663.466 1067.93 663.323C1069.53 663.237 1070.51 662.229 1071.18 660.911C1071.94 659.431 1071.32 658.183 1070.35 657.052C1069.13 655.641 1067.5 655.278 1065.74 655.244C1064.31 655.231 1062.78 656.477 1062.74 657.702Z" fill="#D22F2F" fill-opacity="0.15"/>
<path d="M1423.6 516.609C1423.68 518.049 1425.43 519.222 1428.23 519.241C1428.67 519.139 1429.82 518.967 1430.9 518.607C1432.71 518.005 1433.4 515.874 1432.19 514.43C1431.48 513.572 1430.6 512.673 1429.6 512.258C1426.93 511.145 1423.45 513.752 1423.6 516.609Z" fill="#D22F2F" fill-opacity="0.15"/>
<path d="M2120.12 918.298C2119.25 918.204 2118.38 918.468 2118.04 919.4C2117.76 920.182 2117.63 921.023 2117.5 921.577C2117.63 922.722 2117.67 923.584 2117.82 924.426C2118.13 926.101 2120.23 926.91 2121.85 926.063C2123.77 925.059 2123.66 923.287 2123.47 921.608C2123.25 919.716 2122.07 918.509 2120.12 918.298Z" fill="#D22F2F" fill-opacity="0.15"/>
<path d="M2381.63 515.082C2379.37 514.589 2376.66 515.911 2376.01 518.047C2375.8 518.732 2376.05 519.886 2376.54 520.395C2378.74 522.678 2382.07 522.887 2384.34 520.998C2384.75 520.656 2384.93 520.027 2385.21 519.528C2385.3 517.86 2383.37 515.46 2381.63 515.082Z" fill="#D22F2F" fill-opacity="0.15"/>
<path d="M1234.83 115.494C1235.88 115.833 1237.15 115.713 1238.28 115.552C1240.5 115.237 1241.32 112.854 1240.09 110.819C1239.08 109.151 1237.69 108.338 1235.76 108.402C1233.48 108.5 1231.51 110.124 1231.49 111.988C1231.47 114.196 1233.19 114.964 1234.83 115.494Z" fill="#D22F2F" fill-opacity="0.15"/>
<path d="M490.777 944.127C489.932 945.835 490.381 948.896 491.697 949.747C492.138 950.033 492.817 950.162 493.34 950.077C496.263 949.598 498.435 946.77 498.149 943.636C497.769 943.151 497.386 942.234 496.709 941.878C494.955 940.959 491.68 942.301 490.777 944.127Z" fill="#D22F2F" fill-opacity="0.15"/>
<path d="M826.947 1286.48C825.112 1286.62 823.813 1287.15 823.595 1288.87C823.432 1290.16 824.249 1290.97 825.352 1291.52C828.911 1293.29 831.443 1293.15 833.253 1291.13C833.735 1290.59 833.684 1290.19 833.35 1289.57C831.881 1286.83 829.205 1286.82 826.947 1286.48Z" fill="#D22F2F" fill-opacity="0.15"/>
<path d="M577.212 1366.88C575.765 1367.14 574.32 1367.25 572.976 1367.67C571.126 1368.26 570.094 1370.3 570.735 1371.7C571.608 1373.6 574.206 1374.61 575.81 1373.45C576.949 1372.63 577.925 1371.51 578.755 1370.37C579.213 1369.74 579.566 1368.64 579.323 1368.01C579.113 1367.46 577.989 1367.26 577.212 1366.88Z" fill="#D22F2F" fill-opacity="0.15"/>
<path d="M840.413 1018.97C839.268 1019.09 838.269 1019.98 837.935 1021.16C837.594 1022.37 838.083 1023.44 839.142 1024.14C839.853 1024.6 840.654 1024.93 841.181 1025.19C843.625 1025.31 845.316 1024.06 847.053 1023.12C848.011 1022.59 847.335 1021.56 846.787 1020.98C845.054 1019.16 842.768 1018.72 840.413 1018.97Z" fill="#D22F2F" fill-opacity="0.15"/>
<path d="M1334.11 1016.35C1332.11 1015.79 1330.14 1015.6 1328.17 1016.48C1327.06 1016.98 1325.97 1017.75 1326.05 1018.91C1326.12 1020.04 1327.16 1020.93 1328.33 1021.27C1329.43 1021.59 1330.58 1021.74 1331.55 1021.94C1332.58 1021.72 1333.46 1021.62 1334.26 1021.33C1335.42 1020.9 1336.17 1019.97 1336.17 1018.73C1336.18 1017.45 1335.33 1016.7 1334.11 1016.35Z" fill="#D22F2F" fill-opacity="0.15"/>
<path d="M1199.59 284.861C1201.57 285.14 1203.67 282.716 1203.61 280.204C1203.58 278.493 1201.95 276.476 1200.62 276.501C1198.66 276.538 1196.55 278.949 1196.45 281.269C1196.38 282.75 1198.04 284.641 1199.59 284.861Z" fill="#D22F2F" fill-opacity="0.15"/>
<path d="M1396.27 804.377C1397.11 802.049 1395.85 800.597 1394.18 799.351C1393.23 798.65 1392.09 798.248 1391.04 798.949C1389.42 800.029 1389.25 801.772 1389.57 803.491C1389.77 804.584 1390.15 805.73 1390.78 806.629C1391.21 807.246 1392.19 807.48 1392.77 807.804C1395.05 807.609 1395.68 806.023 1396.27 804.377Z" fill="#D22F2F" fill-opacity="0.15"/>
<path d="M1009.69 504.852C1008.69 505.351 1007.74 506.028 1006.91 506.782C1005.81 507.783 1005.12 509.056 1005.91 510.559C1006.67 511.995 1008.06 512.376 1009.54 512.207C1012.21 511.904 1013.66 510.283 1013.73 507.698C1013.79 505.44 1011.64 503.88 1009.69 504.852Z" fill="#D22F2F" fill-opacity="0.15"/>
<path d="M1208.36 811.581C1206.36 812.232 1205.96 813.854 1206.05 815.67C1206.12 817.096 1206.18 818.642 1207.38 819.608C1207.95 820.068 1208.92 820.199 1209.7 820.18C1210.12 820.17 1210.72 819.611 1210.9 819.164C1211.2 818.385 1211.24 817.5 1211.33 816.948C1211.29 816.076 1211.27 815.502 1211.22 814.931C1210.98 812.382 1209.88 811.088 1208.36 811.581Z" fill="#D22F2F" fill-opacity="0.15"/>
<path d="M779.342 437.872C776.967 438.438 775.289 439.929 774.311 442.124C774.149 442.488 774.469 443.324 774.83 443.62C776.963 445.368 782.145 444.088 782.974 441.663C783.065 441.397 783.049 441.095 783.082 440.81C782.848 439.333 780.659 437.559 779.342 437.872Z" fill="#D22F2F" fill-opacity="0.15"/>
<path d="M1973.52 436.663C1973.33 435.847 1972.85 435.067 1971.94 434.985C1969.91 434.597 1968.52 435.739 1967.12 436.699C1966.14 437.374 1965.61 438.384 1965.98 439.655C1966.35 440.924 1967.41 441.5 1968.53 441.691C1971.93 442.268 1974.29 439.868 1973.52 436.663Z" fill="#D22F2F" fill-opacity="0.15"/>
<path d="M770.021 785.927C769.734 787.047 769.854 788.318 770.799 789.194C772.025 790.33 773.549 790.114 774.91 789.608C776.671 788.953 777.744 787.6 777.887 785.64C777.641 785.129 777.511 784.494 777.127 784.125C774.9 781.983 770.768 783.008 770.021 785.927Z" fill="#D22F2F" fill-opacity="0.15"/>
<path d="M632.443 1064.97C631.309 1065.81 630.17 1066.69 629.225 1067.73C627.642 1069.46 627.555 1071.4 628.851 1072.17C630.367 1073.06 631.64 1072.35 632.649 1071.33C633.632 1070.34 634.432 1069.14 635.164 1067.94C635.411 1067.54 635.203 1066.86 635.203 1066.66C634.961 1065.34 633.204 1064.41 632.443 1064.97Z" fill="#D22F2F" fill-opacity="0.15"/>
<path d="M1074.98 838.555C1073.08 838.663 1071.34 840.684 1071.56 842.681C1071.75 844.283 1072.9 845.276 1074.36 845.447C1076.61 845.709 1079.2 843.187 1078.88 841.317C1078.65 839.964 1076.54 838.467 1074.98 838.555Z" fill="#D22F2F" fill-opacity="0.15"/>
<path d="M344.995 520.28C345.752 520.748 347.864 520.185 347.914 519.885C347.914 518.892 348.078 518.27 347.887 517.787C346.684 514.734 345.223 513.439 343.191 513.676C342.714 513.732 341.915 514.277 341.909 514.61C341.861 517.043 342.881 518.973 344.995 520.28Z" fill="#D22F2F" fill-opacity="0.15"/>
<path d="M541.014 919.786C539.594 920.431 538.789 921.635 539.153 923.25C539.336 924.061 539.765 924.862 540.253 925.546C540.975 926.56 542.04 926.962 543.255 926.51C544.449 926.065 544.896 924.986 545.173 924.102C545.369 922.625 544.819 921.638 544.036 920.755C543.225 919.841 542.196 919.249 541.014 919.786Z" fill="#D22F2F" fill-opacity="0.15"/>
<path d="M879.751 610.689C880.543 610.441 881.451 610.026 881.284 608.894C881.202 608.338 881.128 607.634 880.769 607.298C880.149 606.719 879.343 606.296 878.553 605.95C877.153 605.338 875.762 605.197 874.502 606.37C873.797 607.026 873.508 607.809 873.738 608.702C874.191 610.461 875.749 610.576 877.412 610.945C878.038 610.887 878.943 610.942 879.751 610.689Z" fill="#D22F2F" fill-opacity="0.15"/>
<path d="M1376.99 1280.21C1375.23 1279.81 1373.49 1279.96 1372.91 1282.21L1372.81 1282.32C1372.81 1282.32 1372.81 1282.32 1372.81 1282.32L1372.81 1282.32C1372.04 1282.56 1370.88 1282.56 1370.56 1283.08C1369.66 1284.53 1371.06 1285.32 1372.05 1285.51C1373.72 1285.83 1375.49 1285.82 1377.19 1285.65C1378.41 1285.52 1379.3 1284.47 1379.43 1283.28C1379.61 1281.63 1378.49 1280.54 1376.99 1280.21Z" fill="#D22F2F" fill-opacity="0.15"/>
<path d="M1778.04 1302.39C1776.22 1301.43 1774.35 1300.73 1772.26 1301.49C1771.68 1301.44 1771.11 1301.37 1770.53 1301.34C1764.24 1300.98 1758.87 1301.96 1757.96 1309.72C1757.8 1311.06 1756.48 1311.26 1755.43 1311.73C1754.54 1312.12 1752.88 1312.18 1753.56 1313.83C1753.84 1314.52 1754.71 1315.29 1755.42 1315.41C1759.93 1316.2 1764.43 1317.43 1769.07 1316.37C1771.27 1315.87 1771.46 1315.16 1770.06 1312.27C1769.65 1311.43 1769.51 1310.69 1770.23 1309.96C1772.96 1308.39 1775.7 1306.85 1778.41 1305.24C1779.31 1304.7 1779.05 1302.92 1778.04 1302.39Z" fill="#D22F2F" fill-opacity="0.15"/>
<path d="M296.177 952.071C295.447 952.552 295.196 953.428 295.477 954.373C295.951 955.971 297.301 956.549 298.642 957.091C299.932 957.612 301.34 958.453 302.28 956.528C303.145 955.529 303.541 954.455 302.807 953.203C300.151 951.113 298.22 950.726 296.177 952.071Z" fill="#D22F2F" fill-opacity="0.15"/>
<path d="M1107.33 300.444C1107.96 300.952 1108.85 301.43 1109.6 301.401C1110.29 301.375 1110.95 300.648 1111.47 300.323C1111.82 297.946 1110.13 295.624 1107.73 295.218C1107.06 295.104 1105.84 295.612 1105.56 296.173C1104.64 298.088 1106.01 299.364 1107.33 300.444Z" fill="#D22F2F" fill-opacity="0.15"/>
<path d="M1212.08 1089C1211.5 1089.75 1212.12 1091.48 1213.1 1091.75C1214.78 1092.21 1216.44 1092.21 1217.89 1091.09C1218.3 1090.77 1218.53 1090.2 1218.85 1089.74C1218.74 1089.49 1218.68 1089.2 1218.52 1088.98C1216.98 1086.81 1213.78 1086.83 1212.08 1089Z" fill="#D22F2F" fill-opacity="0.15"/>
<path d="M1034.76 565.325C1035.22 563.785 1034.93 562.399 1033.48 561.605C1032.17 560.88 1029.75 562.271 1029.45 563.905C1029.13 565.642 1029.37 567.347 1030.33 568.891C1034.32 566.767 1034.33 566.768 1034.76 565.325Z" fill="#D22F2F" fill-opacity="0.15"/>
<path d="M938.652 494.003C940.095 494.108 941.841 494.204 942.426 492.628C943.096 490.82 943.934 488.673 941.476 487.287L941.454 487.243C941.583 485.896 940.912 485.458 939.667 485.671V485.672C939.168 485.294 938.641 485.25 938.087 485.54C936.634 485.289 936.184 485.953 936.479 487.298C936.48 487.298 936.48 487.297 936.481 487.297L936.479 487.298C936.233 487.815 936.204 488.344 936.388 488.885C936.708 489.165 937.063 489.421 937.354 489.72C937.068 489.556 936.749 489.287 936.388 488.885C935.874 492.96 936.233 493.827 938.652 494.003Z" fill="#D22F2F" fill-opacity="0.15"/>
<path d="M1530.95 1304.12C1530.69 1304.09 1530.34 1304.13 1530.16 1304.29C1528.37 1305.82 1529.35 1307.42 1530.12 1308.99C1530.37 1309.51 1530.73 1309.98 1531.08 1310.45C1531.62 1311.21 1532.4 1311.63 1533.22 1311.14C1533.6 1310.91 1533.67 1310.16 1533.88 1309.65C1533.82 1309.07 1533.77 1308.49 1533.7 1307.91C1533.48 1306.13 1533.27 1304.35 1530.95 1304.12Z" fill="#D22F2F" fill-opacity="0.15"/>
<path d="M1207.23 30.416C1207.31 27.511 1205.94 26.188 1202.99 26.349C1201.76 26.416 1200.84 27.065 1200.07 27.983C1198.68 29.268 1198.78 30.508 1200.18 31.71C1201.14 32.289 1202.04 33.193 1203.07 33.384C1205.72 33.877 1207.16 32.72 1207.23 30.416Z" fill="#D22F2F" fill-opacity="0.15"/>
<path d="M716.802 431.396C715.55 431.276 714.514 431.708 713.841 432.814C713.711 433.027 713.563 433.43 713.662 433.551C714.868 435.032 716.56 435.527 718.339 435.344C719.075 435.268 719.756 434.473 720.413 433.945C720.573 433.817 720.539 433.449 720.596 433.189C719.724 431.763 718.272 431.536 716.802 431.396Z" fill="#D22F2F" fill-opacity="0.15"/>
<path d="M853.649 625.775C853.95 625.562 854.131 624.744 853.968 624.383C853.118 622.493 851.894 620.977 848.426 620.851C848.511 620.857 847.949 621.586 847.778 622.397C847.447 623.963 848.161 625.22 849.575 625.89C850.902 626.519 852.364 626.684 853.649 625.775Z" fill="#D22F2F" fill-opacity="0.15"/>
<path d="M1975.52 775.413C1973.77 775.856 1972.42 776.911 1972.89 778.972C1973.25 780.591 1974.54 781.08 1976.11 780.887C1976.67 780.818 1977.22 780.72 1977.78 780.636C1978.38 779.02 1978.34 777.375 1978 775.717C1977.17 775.599 1976.27 775.222 1975.52 775.413Z" fill="#D22F2F" fill-opacity="0.15"/>
<path d="M2177.35 499.563C2175.72 499.33 2174.03 499.429 2172.37 499.539C2172.01 499.564 2171.41 500.152 2171.4 500.5C2171.38 500.941 2171.74 501.635 2172.13 501.809C2173.11 502.254 2174.19 502.471 2175.23 502.779C2175.83 502.794 2176.42 502.808 2177.01 502.823C2177.01 502.822 2177.01 502.822 2177.01 502.821C2177.01 502.822 2177.01 502.822 2177.01 502.823C2177.9 502.71 2178.75 502.26 2178.64 501.374C2178.56 500.7 2177.88 499.639 2177.35 499.563Z" fill="#D22F2F" fill-opacity="0.15"/>
<path d="M808.153 334.934C810.151 335.019 811.901 333.617 811.605 332.13C811.288 330.532 810.068 329.862 808.664 329.417C807.241 329.834 806.04 330.496 805.706 332.107C805.427 333.456 806.652 334.87 808.153 334.934Z" fill="#D22F2F" fill-opacity="0.15"/>
<path d="M1959.66 344.691C1961.02 344.839 1962.34 343.143 1962.14 341.744C1961.94 340.364 1960.92 339.886 1959.74 339.589C1958.35 339.61 1957.06 341.155 1957.26 342.566C1957.45 343.957 1958.47 344.562 1959.66 344.691Z" fill="#D22F2F" fill-opacity="0.15"/>
<path d="M2193.91 96.2819C2193.01 95.5699 2191.85 95.8119 2190.97 96.6849C2189.74 96.7709 2189.28 97.4029 2189.61 98.5989C2189.25 99.0879 2189.24 99.5809 2189.6 100.077C2189.51 101.36 2190.12 102.073 2191.4 102.129C2192.9 102.196 2193.97 101.63 2194.19 99.9909C2194.89 98.6879 2195.18 97.2869 2193.91 96.2819Z" fill="#D22F2F" fill-opacity="0.15"/>
<path d="M904.529 859.758C904.495 860.85 904.35 862.229 905.991 862.236C906.893 862.24 907.404 861.419 907.604 860.483C907.618 859.227 907.072 858.156 905.786 857.996C904.779 857.87 904.554 858.948 904.529 859.758Z" fill="#D22F2F" fill-opacity="0.15"/>
<path d="M218.992 41.4449C218.39 41.6439 217.628 42.6919 217.687 43.2819C217.808 44.4979 218.727 45.3189 220.103 44.9609C220.983 44.7319 221.415 43.9929 221.473 43.0399C221.115 41.8069 220.241 41.0319 218.992 41.4449Z" fill="#D22F2F" fill-opacity="0.15"/>
<path d="M1435.71 442.111C1436.48 441.123 1436.46 439.803 1435.42 438.98C1434.35 438.129 1433.28 438.601 1432.47 439.621C1432.39 440.307 1432.32 440.994 1432.24 441.681L1432.24 441.678C1432.24 441.678 1432.24 441.68 1432.24 441.682C1433.25 443.006 1434.44 443.739 1435.71 442.111Z" fill="#D22F2F" fill-opacity="0.15"/>
<path d="M285.622 919.597C284.546 919.697 283.261 920.039 283.514 921.641C283.728 922.995 284.788 923.516 285.96 923.429C287.112 923.343 288.171 922.822 288.125 921.998C287.873 919.876 286.749 919.492 285.622 919.597Z" fill="#D22F2F" fill-opacity="0.15"/>
<path d="M988.407 738.076C987.152 737.42 985.714 738.533 985.46 740.057C985.352 741.095 985.728 741.83 986.605 742.109C987.887 742.517 989.795 741.302 989.726 739.99C989.691 739.313 989.034 738.403 988.407 738.076Z" fill="#D22F2F" fill-opacity="0.15"/>
<path d="M1538.01 939.846C1538.77 939.375 1539.1 938.534 1538.79 937.664C1538.38 936.496 1537.58 935.773 1535.78 936.115C1535.4 936.195 1534.76 937.093 1534.89 937.893C1535.12 939.337 1536.92 940.511 1538.01 939.846Z" fill="#D22F2F" fill-opacity="0.15"/>
<path d="M1453.42 514.362C1453.33 513.482 1452.79 512.898 1451.9 512.681C1450.9 512.608 1450.25 513.209 1450.3 514.076C1450.34 514.789 1450.75 515.685 1451.29 516.118C1452.04 516.71 1453.54 515.451 1453.42 514.362Z" fill="#D22F2F" fill-opacity="0.15"/>
<path d="M2164.6 927.082C2164 927.004 2163.4 926.925 2162.8 926.847L2162.81 926.849L2162.8 926.848C2161.41 927.212 2161.07 928.241 2161.66 929.332C2162.37 930.669 2164.2 930.855 2165.16 929.711C2165.95 928.776 2165.97 927.707 2164.6 927.082Z" fill="#D22F2F" fill-opacity="0.15"/>
<path d="M1157.54 547.686C1158.89 546.151 1158.48 544.443 1156.15 543.812C1151.65 543.104 1151.22 543.504 1152.57 547.124C1153.97 549.57 1155.97 549.458 1157.54 547.686Z" fill="#D22F2F" fill-opacity="0.15"/>
<path d="M1575.5 471.427C1574.61 471.643 1573.88 472.25 1574.13 473.292C1574.37 474.224 1575.17 474.619 1576.08 474.374C1576.98 474.129 1577.5 473.447 1577.51 472.614C1577.15 471.509 1576.36 471.216 1575.5 471.427Z" fill="#D22F2F" fill-opacity="0.15"/>
<path d="M1806.17 764.526C1804.85 764.759 1804.35 765.668 1804.51 766.884C1804.57 767.345 1805 768.044 1805.38 768.127C1806.78 768.435 1807.34 767.487 1807.41 766.288C1807.45 765.482 1807.13 764.732 1806.17 764.526Z" fill="#D22F2F" fill-opacity="0.15"/>
<path d="M129.316 1043.41C128.411 1043.63 127.728 1044.36 127.929 1045.3C128.125 1046.21 129.035 1046.51 129.918 1046.3C130.811 1046.09 131.475 1045.57 131.406 1045.19C130.966 1043.5 130.195 1043.19 129.316 1043.41Z" fill="#D22F2F" fill-opacity="0.15"/>
<path d="M2232.29 1233.86C2231.44 1233.41 2229.87 1234.77 2230.06 1235.68C2230.25 1236.62 2231.03 1236.96 2231.89 1237.13C2232.88 1237.15 2233.62 1236.56 2233.55 1235.71C2233.5 1235.04 2232.89 1234.18 2232.29 1233.86Z" fill="#D22F2F" fill-opacity="0.15"/>
<path d="M1754.6 334.103C1755.17 334.038 1755.73 333.974 1756.29 333.909C1757.56 333.978 1758.42 333.485 1758.45 332.125C1758.49 330.611 1757.93 329.479 1756.24 329.264C1755.7 329.187 1755.17 329.11 1754.63 329.033C1752.94 328.476 1752.08 329.482 1751.35 330.758L1751.19 330.848C1750.34 330.967 1749.61 331.339 1749.53 332.257C1749.46 333.082 1749.76 333.855 1750.64 334.188C1751.97 334.691 1753.3 334.75 1754.6 334.103ZM1754.05 333.574C1754.29 333.691 1754.49 333.851 1754.6 334.101C1754.42 333.926 1754.23 333.75 1754.05 333.574Z" fill="#D22F2F" fill-opacity="0.15"/>
<path d="M1699.52 97.687C1698.34 96.203 1697.15 96.806 1696.51 98.482C1697.1 99.023 1697.69 99.574 1698.28 100.132C1699.6 99.765 1700.27 98.626 1699.52 97.687Z" fill="#D22F2F" fill-opacity="0.15"/>
<path d="M1022.54 747.549C1021.99 747.655 1021.44 747.76 1020.89 747.866C1018.56 748.782 1017.36 750.499 1017.81 752.961C1018.11 754.551 1020.43 754.432 1023.66 752.664C1024.11 752.418 1024.38 751.842 1024.73 751.419C1025.84 748.198 1025.76 748.063 1022.54 747.549Z" fill="#D22F2F" fill-opacity="0.15"/>
<path d="M1467.53 716.127C1472.02 718.856 1473.98 718.15 1474.02 713.71C1474.04 712.044 1474.17 710.277 1472.96 708.842C1471.7 706.682 1471.25 706.63 1469.26 708.418L1469.25 708.419L1469.16 708.456C1467.96 708.544 1467.43 709.204 1467.51 710.384C1465.86 712.295 1465.4 714.208 1467.53 716.127V716.127Z" fill="#D22F2F" fill-opacity="0.15"/>
<path d="M2251 421.818C2251.47 422.468 2252.01 422.503 2252.62 422.006C2255.29 419.54 2253.65 416.854 2253.01 414.222C2253.01 414.219 2253.01 414.215 2253.01 414.212C2253.06 413.652 2253.19 413.082 2253.13 412.533C2252.98 411.145 2252.87 409.486 2250.96 409.608C2249.25 409.717 2248.77 411.312 2248.73 412.696C2248.68 414.064 2249.13 415.446 2249.36 416.823C2249.1 418.753 2249.03 420.619 2251 421.818Z" fill="#D22F2F" fill-opacity="0.15"/>
<path d="M2071.59 1044.48C2070.65 1043.72 2069.54 1043.49 2068.46 1043.93C2067.01 1044.52 2066.19 1045.76 2066.7 1047.26C2067.07 1048.38 2068.23 1048.77 2069.47 1048.35C2069.47 1048.35 2069.47 1048.35 2069.47 1048.35C2069.47 1048.35 2069.47 1048.35 2069.47 1048.35C2070.72 1048.66 2071.95 1048.74 2073.11 1048.03C2074.99 1046.27 2074.66 1045.5 2071.59 1044.48Z" fill="#D22F2F" fill-opacity="0.15"/>
<path d="M1171.85 451.674C1171.88 451.503 1171.31 451.214 1170.99 450.962C1170.86 451.457 1170.69 451.889 1170.67 452.328C1170.66 452.507 1170.99 452.702 1171.16 452.89C1171.41 452.487 1171.77 452.107 1171.85 451.674Z" fill="#D22F2F" fill-opacity="0.15"/>
<path d="M1228.72 230.124C1226.35 227.462 1225.72 227.5 1223.32 230.453C1222.9 230.799 1222.68 231.246 1222.67 231.793C1221.25 232.789 1220.53 233.955 1221.76 235.589C1222.09 236.05 1222.33 236.658 1222.77 236.95C1225.85 238.983 1226.07 238.937 1228.23 235.921C1228.55 235.47 1228.67 234.871 1228.88 234.34C1230.25 232.88 1229.74 231.492 1228.72 230.124Z" fill="#D22F2F" fill-opacity="0.15"/>
<path d="M1226.61 546.957C1226.62 547.56 1226.63 548.163 1226.63 548.767C1228 548.149 1227.9 547.547 1226.61 546.957Z" fill="#D22F2F" fill-opacity="0.15"/>
<path d="M1698.28 100.133C1697.69 99.5829 1697.1 99.0329 1696.51 98.4829C1696.44 99.7389 1697.05 100.261 1698.28 100.133Z" fill="#D22F2F" fill-opacity="0.15"/>
<path d="M1258.16 115.989C1258.6 116.232 1258.25 117.903 1259.49 116.721C1259.07 116.45 1258.65 116.178 1258.23 115.907L1258.16 115.989Z" fill="#D22F2F" fill-opacity="0.15"/>
</g>
</g>
<defs>
<clipPath id="clip0_4_1633">
<rect width="2400" height="1400" fill="white"/>
</clipPath>
</defs>
</svg>
