<svg width="4553" height="990" viewBox="0 0 4553 990" fill="none" xmlns="http://www.w3.org/2000/svg">
<path d="M974.241 581.151C907.574 485.588 849.528 445.725 750.915 392.283C903.581 330.156 1022.8 263.751 1119.54 124.483C847.666 270.993 403.137 366.817 340.401 379.883C170.763 544.505 105.768 482.133 81.99 429.364C50.8593 466.001 16.3136 537.2 111.377 619.658C117.558 582.062 146.137 551.335 246.438 615.324C288.955 553.126 435.924 430.639 870.145 679.621C848.078 625.117 767.712 495.508 682.117 450.765C783.48 460.193 877.846 504.184 974.241 581.151ZM172.324 747.936C365.906 950.012 567.047 300.705 879.241 929.411C746.549 866.667 447.555 780.129 408.446 989.486C299.96 968.347 142.603 887.236 172.324 747.936ZM238.784 843.729C261.453 871.151 301.378 902.797 371.531 925.434C395.658 869.868 481.792 755.02 769.265 838.888C546.533 512.654 419.863 872.887 238.784 843.729ZM866.785 399.319C995.698 488.179 1064.78 611.75 1115.25 753.625C1044.81 679.32 918.358 599.739 866.73 567.253C921.369 643.428 950.598 722.534 951.121 788.868C799.192 695.634 364.305 420.3 268.615 693.487C219.38 646.748 130.179 587.259 166.46 702.195C-20.6248 631.828 -66.58 466.801 114.491 335.861C114.166 527.732 282.537 367.443 322.755 330.909C324.459 330.568 981.808 181.642 1241.24 -8.05571e-05C1174.03 176.325 1064.59 305.016 866.785 399.319Z" fill="rgb(210, 47, 47)"/>
<path d="M395.309 409.555L575.786 372.679L514.919 409.642C493.186 451.176 431.249 470.255 395.309 409.555Z" fill="rgb(210, 47, 47)"/>
<path d="M4384.24 641.895C4467.56 641.895 4467.12 551.922 4435.8 522.735C4414.48 502.882 4389.57 504.962 4361.27 504.962V641.895H4384.24ZM4392.89 420.908C4608.17 420.908 4604.45 727.682 4392.89 727.682H4265.08V420.908H4392.89ZM4103.45 608.962L4075.72 523.602L4047.99 608.962H4103.45ZM4126.85 681.322H4024.59L4009.43 727.682H3908.47L4020.69 420.908H4131.61L4243.41 727.682H4142.01L4126.85 681.322ZM3785.4 497.602V535.295H3880.73V607.655H3785.4V650.989H3893.73V727.682H3689.21V420.908H3893.73V497.602H3785.4ZM3645.88 420.908V727.682H3549.69V608.095H3458.27V727.682H3362.07V420.908H3458.27V531.402H3549.69V420.908H3645.88ZM3245.08 727.682H3148.88L3047.05 573.429V727.682H2950.87V420.908H3047.05L3148.88 577.762V420.908H3245.08V727.682ZM2758.91 641.029C2828.04 641.029 2829.55 554.162 2803.11 522.948C2777.37 492.562 2698.68 492.389 2698.68 573.002C2698.68 612.255 2718.04 641.029 2758.91 641.029ZM2758.91 730.722C2590.96 730.722 2544.13 511.189 2679.4 435.855C2779.28 380.229 2916.2 441.949 2916.2 573.002C2916.2 663.509 2847.27 730.722 2758.91 730.722ZM2471.63 525.762C2453 495.642 2372.4 492.669 2372.4 573.869C2372.4 621.015 2393.8 645.362 2441.29 645.362C2463.55 645.362 2481.45 636.402 2495.03 618.495H2418.33V550.469H2574.75V646.655C2561.47 669.482 2543.12 689.055 2519.72 705.375C2445.31 757.282 2274.91 735.229 2274.91 573.869C2274.91 408.655 2452.57 389.015 2528.17 446.908C2553.45 466.255 2568.4 492.549 2573.03 525.762H2471.63ZM2121.95 608.962L2094.23 523.602L2066.49 608.962H2121.95ZM2145.35 681.322H2043.09L2027.92 727.682H1926.96L2039.19 420.908H2150.12L2261.91 727.682H2160.52L2145.35 681.322ZM1754.51 553.495C1789.93 553.495 1820.37 560.242 1820.37 527.495C1820.37 494.615 1785.48 501.495 1754.51 501.495V553.495ZM1812.57 727.682L1754.95 617.629H1754.51V727.682H1658.32V420.908H1801.31C1942.71 420.908 1951.85 577.735 1851.57 610.255L1918.29 727.682H1812.57ZM1455.53 641.895C1538.87 641.895 1538.41 551.922 1507.09 522.735C1485.79 502.882 1460.87 504.962 1432.56 504.962V641.895H1455.53ZM1464.2 420.908C1679.47 420.908 1675.75 727.682 1464.2 727.682H1336.37V420.908H1464.2Z" fill="rgb(210, 47, 47)"/>
<path d="M4175.36 890.455V919.469H4214.32V937.869H4175.36V968.535H4219.29V987.442H4152.15V871.562H4219.29V890.455H4175.36ZM4000.24 924.935C4017.8 924.935 4038.37 928.682 4038.37 907.695C4038.37 887.255 4017.69 890.962 4000.24 890.962V924.935ZM4036.72 987.442L4011.19 942.349H4000.24V987.442H3977.04V871.722C4007.72 871.722 4062.25 863.335 4062.25 907.202C4062.25 923.429 4052.51 936.109 4035.89 940.522L4063.57 987.442H4036.72ZM3843.21 890.455V919.469H3882.16V937.869H3843.21V968.535H3887.13V987.442H3820V871.562H3887.13V890.455H3843.21ZM3728.28 871.722V987.442H3705.07V938.202H3655.49V987.442H3632.29V871.722H3655.49V919.309H3705.07V871.722H3728.28ZM3462.99 988.602C3441.19 988.602 3420.41 977.522 3420.04 954.122H3444.91C3446.41 975.735 3479.89 973.735 3479.89 955.442C3479.89 930.269 3420.37 945.415 3420.37 903.722C3420.37 859.429 3499.23 857.575 3502.6 903.055H3477.07C3476.11 885.722 3444.59 883.362 3444.59 902.895C3444.59 926.095 3503.93 913.149 3503.93 953.949C3503.93 975.895 3485.27 988.602 3462.99 988.602ZM3289.2 890.455V919.469H3328.16V937.869H3289.2V968.535H3333.13V987.442H3265.99V871.562H3333.13V890.455H3289.2ZM3120.72 967.882C3167.89 967.882 3168.33 890.962 3120.72 890.962C3072.87 890.962 3073.31 967.882 3120.72 967.882ZM3120.72 988.602C3042.09 988.602 3042.08 870.069 3120.72 870.069C3199.24 870.069 3199.16 988.602 3120.72 988.602ZM2951.41 906.535C2937.69 881.389 2889.08 886.829 2889.08 929.415C2889.08 976.175 2949.67 980.695 2958.04 940.855H2918.25V923.122H2980.92C2980.92 940.735 2982.81 949.762 2970.97 965.722C2940.37 1006.98 2865.2 990.682 2865.2 929.415C2865.2 859.589 2960.39 850.695 2978.11 906.535H2951.41ZM2697.56 890.455V919.469H2736.52V937.869H2697.56V968.535H2741.49V987.442H2674.35V871.562H2741.49V890.455H2697.56ZM2582.63 987.442H2559.41L2506.87 908.029V987.442H2483.65V871.562H2506.87L2559.41 951.135V871.562H2582.63V987.442ZM2391.93 871.722V987.442H2368.72V871.722H2391.93ZM2246.99 969.042H2285.12V987.442H2223.79V871.722H2246.99V969.042ZM2108.19 906.535C2094.48 881.389 2045.85 886.829 2045.85 929.415C2045.85 976.175 2106.44 980.695 2114.81 940.855H2075.04V923.122H2137.69C2137.69 940.735 2139.6 949.762 2127.75 965.722C2097.15 1006.98 2021.99 990.682 2021.99 929.415C2021.99 859.589 2117.16 850.695 2134.88 906.535H2108.19ZM1904.73 946.829L1887.99 898.415L1871.24 946.829H1904.73ZM1911.03 965.389H1864.95L1857.32 987.442H1832.95L1874.56 871.562H1901.59L1943.19 987.442H1918.65L1911.03 965.389ZM1754.32 871.722V890.455H1723.49V987.442H1700.28V890.455H1669.44V871.722H1754.32Z" fill="rgb(210, 47, 47)"/>
</svg>
